<svg width="25" height="24" viewBox="0 0 25 24" fill="none" xmlns="http://www.w3.org/2000/svg">
<g clip-path="url(#clip0_632_3977)">
<path d="M11.9035 2.20222C11.9035 2.20222 6.42712 2.24892 6.0836 8.67407C6.0836 8.67407 3.17367 8.87423 1.16353 11.1027C1.16353 11.1027 0 9.94397 0 7.01496C0 3.7946 3.04956 2.75155 5.04418 3.58332C5.04418 3.58332 4.76715 1.33485 6.76178 0.396325C8.8251 -0.571116 10.4629 0.309589 11.9035 2.20222Z" fill="white"/>
<path d="M10.33 14.8012H14.4965L14.4766 18.5286C14.4965 23.2324 9.91553 23.933 9.91553 23.933C4.54334 24.618 4.8381 19.8275 4.8381 19.8275C1.17021 20.7949 -1.13247 16.4981 0.582904 13.409C2.29828 10.3198 6.00607 10.0352 6.00607 10.0352V17.539C6.00607 17.539 5.93958 19.8319 8.22231 19.6851C10.4386 19.545 10.3145 17.5857 10.3145 17.5857L10.33 14.8012Z" fill="white"/>
<path d="M10.2679 6.49677V9.89505H14.4788V7.32187C14.4788 7.32187 14.5741 5.20018 16.3848 5.17571C18.2796 5.14902 18.4569 6.95491 18.4525 7.32187V10.6267C19.4791 10.3656 20.5586 10.403 21.5648 10.7346C22.5711 11.0662 23.4625 11.6783 24.135 12.4994C24.135 12.4994 25.2697 10.3421 24.3056 8.64293C24.0364 8.10567 23.6369 7.64489 23.144 7.30292C22.651 6.96096 22.0803 6.74876 21.4843 6.68581C21.4843 6.68581 22.9426 4.36173 20.5269 2.09547C18.1112 -0.170795 14.2727 0.761063 12.6969 1.97315C11.1677 3.14075 10.4164 4.17269 10.2679 6.49677Z" fill="white"/>
<path d="M18.4702 17.0163V11.7877C21.4045 11.0337 24.6846 12.873 24.2812 15.9822C23.6718 18.9979 21.1785 18.5531 21.1785 18.5531V19.6317C21.18 20.0105 21.1162 20.3867 20.9901 20.7437C20.7833 21.3751 20.4239 21.9452 19.944 22.4032C19.464 22.8611 18.8785 23.1926 18.2397 23.3681C15.2057 24.1465 13.4504 22.5763 13.4504 22.5763C17.9295 22.2227 18.4436 18.5042 18.4702 17.0163Z" fill="white"/>
</g>
<defs>
<clipPath id="clip0_632_3977">
<rect width="25" height="24" fill="white"/>
</clipPath>
</defs>
</svg>
