<svg width="291" height="121" viewBox="0 0 291 121" fill="none" xmlns="http://www.w3.org/2000/svg">
<g opacity="0.5" filter="url(#filter0_f_495_5902)">
<path fill-rule="evenodd" clip-rule="evenodd" d="M148.48 78.9605C148.48 78.8794 148.48 78.7971 148.48 78.7138L148.48 78.9605ZM148.48 42.2467L148.48 60.4803L148.48 78.7138C148.431 72.4814 144.709 60.4938 130.025 60.4803L130 60.4803L130.025 60.4803C144.709 60.4668 148.431 48.4792 148.48 42.2467ZM148.48 42.0893C148.48 42.0594 148.48 42.0296 148.48 42L148.48 42.2467C148.48 42.2165 148.48 42.1864 148.48 42.1564C148.48 42.1864 148.48 42.2165 148.481 42.2467L148.481 60.4803L166.96 60.4803C152.256 60.4803 148.529 48.4827 148.481 42.2467L148.481 42C148.48 42.0296 148.48 42.0594 148.48 42.0893ZM148.481 78.7139C148.48 78.7971 148.48 78.8794 148.481 78.9606L148.481 78.7139ZM148.481 78.7139C148.529 72.4779 152.256 60.4803 166.961 60.4803L148.481 60.4803L148.481 78.7139Z" fill="url(#paint0_diamond_495_5902)"/>
</g>
<path fill-rule="evenodd" clip-rule="evenodd" d="M148.568 44.2967C148.568 44.3185 148.568 44.3405 148.568 44.3625V44.1432C148.568 44.1648 148.568 44.1865 148.568 44.2082C148.568 44.1865 148.569 44.1648 148.569 44.1432V44.3625C148.569 44.3405 148.568 44.3185 148.568 44.2967ZM148.569 44.3625C148.612 49.9052 151.924 60.569 164.994 60.569L148.569 60.569L148.569 44.3625ZM148.568 76.7756C148.525 71.2362 145.217 60.5818 132.166 60.569H132.143L132.159 60.569L132.143 60.569H132.166C145.217 60.5563 148.525 49.9019 148.568 44.3625V60.569L148.568 60.569L148.568 76.7756ZM148.568 76.8339C148.568 76.8145 148.568 76.7951 148.568 76.7756V76.9949C148.568 76.9758 148.568 76.9567 148.568 76.9375C148.569 76.9567 148.569 76.9758 148.569 76.9949V76.7756C148.612 71.2329 151.924 60.5691 164.994 60.5691L148.569 60.5691L148.569 76.7756C148.569 76.7951 148.569 76.8145 148.568 76.8339Z" fill="url(#paint1_diamond_495_5902)"/>
<g filter="url(#filter1_f_495_5902)">
<rect x="148" y="1" width="0.6" height="119" fill="url(#paint2_linear_495_5902)"/>
</g>
<rect x="148" y="1" width="0.4" height="119" fill="url(#paint3_linear_495_5902)"/>
<g filter="url(#filter2_f_495_5902)">
<rect x="48" y="60" width="130" height="0.6" fill="url(#paint4_linear_495_5902)"/>
</g>
<rect y="60" width="291" height="0.4" fill="url(#paint5_linear_495_5902)"/>
<rect x="43.653" y="60" width="218.25" height="0.4" fill="url(#paint6_linear_495_5902)"/>
<g opacity="0.5" filter="url(#filter3_f_495_5902)">
<path fill-rule="evenodd" clip-rule="evenodd" d="M148.48 78.9605C148.48 78.8794 148.48 78.7971 148.48 78.7138L148.48 78.9605ZM148.48 42.2467L148.48 60.4803L148.48 78.7138C148.431 72.4814 144.709 60.4938 130.025 60.4803L130 60.4803L130.025 60.4803C144.709 60.4668 148.431 48.4792 148.48 42.2467ZM148.48 42.0893C148.48 42.0594 148.48 42.0296 148.48 42L148.48 42.2467C148.48 42.2165 148.48 42.1864 148.48 42.1564C148.48 42.1864 148.48 42.2165 148.481 42.2467L148.481 60.4803L166.96 60.4803C152.256 60.4803 148.529 48.4827 148.481 42.2467L148.481 42C148.48 42.0296 148.48 42.0594 148.48 42.0893ZM148.481 78.7139C148.48 78.7971 148.48 78.8794 148.481 78.9606L148.481 78.7139ZM148.481 78.7139C148.529 72.4779 152.256 60.4803 166.961 60.4803L148.481 60.4803L148.481 78.7139Z" fill="url(#paint7_diamond_495_5902)"/>
</g>
<path fill-rule="evenodd" clip-rule="evenodd" d="M148.568 44.2967C148.568 44.3185 148.568 44.3405 148.568 44.3625V44.1432C148.568 44.1648 148.568 44.1865 148.568 44.2082C148.568 44.1865 148.569 44.1648 148.569 44.1432V44.3625C148.569 44.3405 148.568 44.3185 148.568 44.2967ZM148.569 44.3625C148.612 49.9052 151.924 60.569 164.994 60.569L148.569 60.569L148.569 44.3625ZM148.568 76.7756C148.525 71.2362 145.217 60.5818 132.166 60.569H132.143L132.159 60.569L132.143 60.569H132.166C145.217 60.5563 148.525 49.9019 148.568 44.3625V60.569L148.568 60.569L148.568 76.7756ZM148.568 76.8339C148.568 76.8145 148.568 76.7951 148.568 76.7756V76.9949C148.568 76.9758 148.568 76.9567 148.568 76.9375C148.569 76.9567 148.569 76.9758 148.569 76.9949V76.7756C148.612 71.2329 151.924 60.5691 164.994 60.5691L148.569 60.5691L148.569 76.7756C148.569 76.7951 148.569 76.8145 148.568 76.8339Z" fill="url(#paint8_diamond_495_5902)"/>
<g filter="url(#filter4_f_495_5902)">
<rect x="135.772" y="47.0649" width="37" height="1" transform="rotate(45 135.772 47.0649)" fill="url(#paint9_linear_495_5902)"/>
</g>
<g filter="url(#filter5_f_495_5902)">
<rect x="161.935" y="47.7721" width="37" height="1" transform="rotate(135 161.935 47.7721)" fill="url(#paint10_linear_495_5902)"/>
</g>
<g filter="url(#filter6_f_495_5902)">
<circle cx="148" cy="61" r="16" fill="url(#paint11_radial_495_5902)"/>
<circle cx="148" cy="61" r="15.7" stroke="url(#paint12_linear_495_5902)" stroke-width="0.6"/>
</g>
<defs>
<filter id="filter0_f_495_5902" x="124" y="36" width="48.9606" height="48.9606" filterUnits="userSpaceOnUse" color-interpolation-filters="sRGB">
<feFlood flood-opacity="0" result="BackgroundImageFix"/>
<feBlend mode="normal" in="SourceGraphic" in2="BackgroundImageFix" result="shape"/>
<feGaussianBlur stdDeviation="3" result="effect1_foregroundBlur_495_5902"/>
</filter>
<filter id="filter1_f_495_5902" x="147" y="0" width="2.59998" height="121" filterUnits="userSpaceOnUse" color-interpolation-filters="sRGB">
<feFlood flood-opacity="0" result="BackgroundImageFix"/>
<feBlend mode="normal" in="SourceGraphic" in2="BackgroundImageFix" result="shape"/>
<feGaussianBlur stdDeviation="0.5" result="effect1_foregroundBlur_495_5902"/>
</filter>
<filter id="filter2_f_495_5902" x="47" y="59" width="132" height="2.59998" filterUnits="userSpaceOnUse" color-interpolation-filters="sRGB">
<feFlood flood-opacity="0" result="BackgroundImageFix"/>
<feBlend mode="normal" in="SourceGraphic" in2="BackgroundImageFix" result="shape"/>
<feGaussianBlur stdDeviation="0.5" result="effect1_foregroundBlur_495_5902"/>
</filter>
<filter id="filter3_f_495_5902" x="124" y="36" width="48.9606" height="48.9606" filterUnits="userSpaceOnUse" color-interpolation-filters="sRGB">
<feFlood flood-opacity="0" result="BackgroundImageFix"/>
<feBlend mode="normal" in="SourceGraphic" in2="BackgroundImageFix" result="shape"/>
<feGaussianBlur stdDeviation="3" result="effect1_foregroundBlur_495_5902"/>
</filter>
<filter id="filter4_f_495_5902" x="134.065" y="46.0649" width="28.8701" height="28.8701" filterUnits="userSpaceOnUse" color-interpolation-filters="sRGB">
<feFlood flood-opacity="0" result="BackgroundImageFix"/>
<feBlend mode="normal" in="SourceGraphic" in2="BackgroundImageFix" result="shape"/>
<feGaussianBlur stdDeviation="0.5" result="effect1_foregroundBlur_495_5902"/>
</filter>
<filter id="filter5_f_495_5902" x="134.065" y="46.065" width="28.8701" height="28.87" filterUnits="userSpaceOnUse" color-interpolation-filters="sRGB">
<feFlood flood-opacity="0" result="BackgroundImageFix"/>
<feBlend mode="normal" in="SourceGraphic" in2="BackgroundImageFix" result="shape"/>
<feGaussianBlur stdDeviation="0.5" result="effect1_foregroundBlur_495_5902"/>
</filter>
<filter id="filter6_f_495_5902" x="131" y="44" width="34" height="34" filterUnits="userSpaceOnUse" color-interpolation-filters="sRGB">
<feFlood flood-opacity="0" result="BackgroundImageFix"/>
<feBlend mode="normal" in="SourceGraphic" in2="BackgroundImageFix" result="shape"/>
<feGaussianBlur stdDeviation="0.5" result="effect1_foregroundBlur_495_5902"/>
</filter>
<radialGradient id="paint0_diamond_495_5902" cx="0" cy="0" r="1" gradientUnits="userSpaceOnUse" gradientTransform="translate(148.48 60.4803) scale(18.4803 18.4803)">
<stop stop-color="white"/>
<stop offset="1" stop-color="white" stop-opacity="0"/>
</radialGradient>
<radialGradient id="paint1_diamond_495_5902" cx="0" cy="0" r="1" gradientUnits="userSpaceOnUse" gradientTransform="translate(148.568 60.5691) scale(16.4258 16.4259)">
<stop stop-color="white"/>
<stop offset="0.578125" stop-color="white" stop-opacity="0.07"/>
<stop offset="1" stop-color="white" stop-opacity="0"/>
</radialGradient>
<linearGradient id="paint2_linear_495_5902" x1="148.6" y1="12.5" x2="148.6" y2="102" gradientUnits="userSpaceOnUse">
<stop stop-color="white" stop-opacity="0"/>
<stop offset="0.484375" stop-color="white"/>
<stop offset="1" stop-color="white" stop-opacity="0"/>
</linearGradient>
<linearGradient id="paint3_linear_495_5902" x1="148.4" y1="12.5" x2="148.4" y2="102" gradientUnits="userSpaceOnUse">
<stop stop-color="white" stop-opacity="0"/>
<stop offset="0.484375" stop-color="white"/>
<stop offset="1" stop-color="white" stop-opacity="0"/>
</linearGradient>
<linearGradient id="paint4_linear_495_5902" x1="178" y1="60.0513" x2="62.6231" y2="60.4505" gradientUnits="userSpaceOnUse">
<stop offset="0.0906189" stop-color="white" stop-opacity="0"/>
<stop offset="0.551887" stop-color="white"/>
<stop offset="0.894386" stop-color="white" stop-opacity="0"/>
</linearGradient>
<linearGradient id="paint5_linear_495_5902" x1="290.999" y1="60.0358" x2="7.30116" y2="62.7596" gradientUnits="userSpaceOnUse">
<stop offset="0.376899" stop-color="white" stop-opacity="0"/>
<stop offset="0.642581" stop-color="white"/>
<stop offset="0.894386" stop-color="white" stop-opacity="0"/>
</linearGradient>
<linearGradient id="paint6_linear_495_5902" x1="261.902" y1="60.0342" x2="68.2153" y2="61.7219" gradientUnits="userSpaceOnUse">
<stop offset="0.383904" stop-color="white" stop-opacity="0"/>
<stop offset="0.644726" stop-color="white"/>
<stop offset="0.894386" stop-color="white" stop-opacity="0"/>
</linearGradient>
<radialGradient id="paint7_diamond_495_5902" cx="0" cy="0" r="1" gradientUnits="userSpaceOnUse" gradientTransform="translate(148.48 60.4803) scale(18.4803 18.4803)">
<stop stop-color="white"/>
<stop offset="1" stop-color="white" stop-opacity="0"/>
</radialGradient>
<radialGradient id="paint8_diamond_495_5902" cx="0" cy="0" r="1" gradientUnits="userSpaceOnUse" gradientTransform="translate(148.568 60.5691) scale(16.4258 16.4259)">
<stop stop-color="white"/>
<stop offset="0.578125" stop-color="white" stop-opacity="0.07"/>
<stop offset="1" stop-color="white" stop-opacity="0"/>
</radialGradient>
<linearGradient id="paint9_linear_495_5902" x1="172.772" y1="47.1504" x2="139.934" y2="47.1698" gradientUnits="userSpaceOnUse">
<stop offset="0.0906189" stop-color="white" stop-opacity="0"/>
<stop offset="0.551887" stop-color="white"/>
<stop offset="0.894386" stop-color="white" stop-opacity="0"/>
</linearGradient>
<linearGradient id="paint10_linear_495_5902" x1="198.935" y1="47.8576" x2="166.097" y2="47.877" gradientUnits="userSpaceOnUse">
<stop offset="0.0906189" stop-color="white" stop-opacity="0"/>
<stop offset="0.551887" stop-color="white"/>
<stop offset="0.894386" stop-color="white" stop-opacity="0"/>
</linearGradient>
<radialGradient id="paint11_radial_495_5902" cx="0" cy="0" r="1" gradientUnits="userSpaceOnUse" gradientTransform="translate(148 61) rotate(90) scale(16)">
<stop offset="0.708333" stop-color="white" stop-opacity="0"/>
<stop offset="1" stop-color="white" stop-opacity="0.16"/>
</radialGradient>
<linearGradient id="paint12_linear_495_5902" x1="159" y1="45" x2="142" y2="75" gradientUnits="userSpaceOnUse">
<stop stop-color="white" stop-opacity="0"/>
<stop offset="0.427083" stop-color="white"/>
<stop offset="0.458333" stop-color="white" stop-opacity="0.780488"/>
<stop offset="1" stop-color="white" stop-opacity="0"/>
</linearGradient>
</defs>
</svg>
