<svg width="193" height="52" viewBox="0 0 193 52" fill="none" xmlns="http://www.w3.org/2000/svg">
<g clip-path="url(#clip0_125_4398)">
<mask id="path-1-inside-1_125_4398" fill="white">
<path fill-rule="evenodd" clip-rule="evenodd" d="M28.2858 8.27328L28.4904 8.46682C29.5644 9.48321 31.0774 9.88927 32.5149 9.54699L32.7889 9.48178L32.9353 9.71997C33.7101 10.9802 35.0666 11.7646 36.5436 11.8067L36.8328 11.8149L36.9108 12.0766C37.3337 13.4948 38.4412 14.6042 39.857 15.0277L40.118 15.1058L40.1262 15.3961C40.1682 16.8755 40.9514 18.2343 42.2096 19.0104L42.4483 19.1578L42.3834 19.4319C42.0418 20.8719 42.447 22.3873 43.4618 23.4632L43.6544 23.6673L43.5217 23.9132C42.8196 25.2155 42.8196 26.7845 43.5217 28.0868L43.659 28.3418L43.4719 28.5405C42.4571 29.6164 42.0518 31.1319 42.3934 32.5718L42.4562 32.8375L42.2096 32.9898C40.9514 33.766 40.1682 35.1247 40.1262 36.6042L40.1183 36.886L39.8496 36.9663C38.4338 37.3899 37.3263 38.4993 36.9034 39.9175L36.8236 40.1853L36.5436 40.1933C35.0666 40.2354 33.7101 41.0198 32.9353 42.2802L32.7834 42.5272L32.5178 42.4639C31.0802 42.1217 29.5673 42.5276 28.4932 43.5441L28.2948 43.732L28.0399 43.594C26.7398 42.8908 25.1734 42.8908 23.8733 43.594L23.626 43.7278L23.4229 43.5357C22.3488 42.5192 20.8358 42.1133 19.3983 42.4555L19.1268 42.5201L18.9792 42.2802C18.2043 41.0198 16.8479 40.2354 15.3708 40.1933L15.081 40.1851L15.003 39.9233C14.5801 38.5051 13.4726 37.3957 12.0568 36.9722L11.7952 36.894L11.787 36.6042C11.745 35.1247 10.9619 33.766 9.70375 32.9898L9.46525 32.8427L9.52985 32.5704C9.87155 31.1305 9.46617 29.615 8.45147 28.5392L8.25893 28.335L8.39278 28.0868C9.0949 26.7845 9.0949 25.2155 8.39278 23.9132L8.25504 23.6577L8.4421 23.4594C9.45679 22.3835 9.86217 20.8681 9.52047 19.4281L9.45742 19.1624L9.70375 19.0104C10.9619 18.2343 11.745 16.8755 11.787 15.3961L11.7949 15.1164L12.0636 15.0361C13.4794 14.6125 14.5869 13.5031 15.0097 12.085L15.0903 11.8147L15.3708 11.8067C16.8479 11.7646 18.2043 10.9802 18.9792 9.71997L19.131 9.47297L19.396 9.53605C20.8335 9.87832 22.3465 9.47226 23.4206 8.45587L23.6186 8.2685L23.8733 8.40635C25.1734 9.10965 26.7398 9.10965 28.0399 8.40635L28.2858 8.27328ZM25.9497 6.06261L27.6466 7.66841L27.6431 7.67034C26.5906 8.23969 25.3226 8.23969 24.2701 7.67034L24.2578 7.66363L25.9497 6.06261ZM22.9647 3.23799L25.3417 5.48726L23.4841 7.24511L21.2454 6.03414L22.9647 3.23799ZM17.4294 3.96979L17.5566 3.54302C18.135 1.60312 20.5516 0.954515 22.0208 2.34484L22.3447 2.6513L20.5095 5.636L17.4294 3.96979ZM16.2495 7.92711L17.1853 4.7884L20.0709 6.34937L18.7367 8.51928L16.2495 7.92711ZM16.0101 8.72988L18.2756 9.26925L18.2681 9.28129C17.6409 10.3015 16.5428 10.9365 15.3471 10.9706L15.342 10.9707L16.0101 8.72988ZM8.71585 16.0376L10.9524 15.3685L10.9523 15.3723C10.9183 16.5699 10.2843 17.6699 9.2658 18.2982L9.25403 18.3054L8.71585 16.0376ZM4.78121 17.2146L7.91442 16.2773L8.50531 18.7673L6.33894 20.1038L4.78121 17.2146ZM2.6451 22.3826L2.33972 22.0589C0.951711 20.5872 1.59923 18.1665 3.5359 17.5872L3.96398 17.4591L5.62677 20.5432L2.6451 22.3826ZM5.47693 25.3853L3.23082 23.0037L6.02419 21.2804L7.23331 23.523L5.47693 25.3853ZM7.65507 27.6947L6.05132 25.9943L7.65117 24.298L7.65804 24.3107C8.2264 25.365 8.2264 26.635 7.65804 27.6893L7.65507 27.6947ZM8.72201 35.9746L9.26186 33.6996L9.2658 33.7021C10.2843 34.3304 10.9183 35.4303 10.9523 36.628L10.9526 36.6419L8.72201 35.9746ZM7.77225 39.9769L8.52859 36.7897L10.9776 37.5223L11.05 40.0702L7.77225 39.9769ZM11.1733 44.4139L10.7397 44.517C8.77329 44.9855 7.00422 43.2133 7.47165 41.2435L7.57498 40.8081L11.0738 40.9077L11.1733 44.4139ZM15.1855 43.4586L12.0031 44.2164L11.9098 40.9315L14.4537 41.004L15.1855 43.4586ZM18.2712 42.7239L15.9992 43.2648L15.3327 41.029L15.3471 41.0294C16.5428 41.0635 17.6409 41.6985 18.2681 42.7188L18.2712 42.7239ZM25.9625 45.9386L24.2652 44.3325L24.2701 44.33C25.3226 43.7605 26.5906 43.7605 27.643 44.33L27.6556 44.3367L25.9625 45.9386ZM28.9484 48.7643L26.5705 46.514L28.4293 44.7552L30.6686 45.9667L28.9484 48.7643ZM34.4844 48.0308L34.3566 48.4594C33.7782 50.3993 31.3616 51.0481 29.8924 49.6575L29.5684 49.3509L31.4045 46.3647L34.4844 48.0308ZM35.6645 44.0729L34.7285 47.2122L31.8432 45.6514L33.1777 43.4808L35.6645 44.0729ZM36.5719 41.0293L35.9038 43.2703L33.6389 42.731L33.6463 42.7188C34.2736 41.6985 35.3717 41.0635 36.5673 41.0294L36.5719 41.0293ZM43.1985 35.9645L40.9608 36.6339L40.961 36.628C40.995 35.4303 41.629 34.3304 42.6476 33.7021L42.6597 33.6945L43.1985 35.9645ZM47.1343 34.7871L43.9998 35.7248L43.4083 33.2326L45.5752 31.8958L47.1343 34.7871ZM49.2669 29.6184L49.5734 29.9435C50.9616 31.4153 50.314 33.8359 48.3773 34.4152L47.9515 34.5426L46.2873 31.4564L49.2669 29.6184ZM46.4356 26.6162L48.6812 28.9973L45.89 30.7193L44.681 28.4765L46.4356 26.6162ZM44.2581 24.3076L45.8612 26.0072L44.2631 27.7015L44.2564 27.6893C43.6879 26.635 43.6879 25.365 44.2564 24.3107L44.2581 24.3076ZM43.1918 16.0254L42.6517 18.3009L42.6476 18.2982C41.629 17.6699 40.995 16.5699 40.961 15.3723L40.9605 15.3579L43.1918 16.0254ZM44.1417 12.0231L43.3852 15.2103L40.9356 14.4774L40.8633 11.9297L44.1417 12.0231ZM40.74 7.58856L41.1735 7.48536C43.1399 7.01715 44.9091 8.78918 44.4415 10.7588L44.3389 11.1919L40.8395 11.0922L40.74 7.58856ZM36.7289 8.54364L39.9102 7.78616L40.0034 11.0685L37.4601 10.996L36.7289 8.54364ZM33.6443 9.27806L35.9152 8.73738L36.5812 10.971L36.5673 10.9706C35.3717 10.9365 34.2736 10.3015 33.6463 9.28129L33.6443 9.27806ZM32.3222 8.72279C31.1602 8.99843 29.9378 8.67029 29.0691 7.84957L31.1073 6.747L32.3222 8.72279ZM28.4299 7.24469L30.6687 6.03364L28.9442 3.22896L26.5652 5.48013L28.4299 7.24469ZM33.1777 8.51911L31.8433 6.34887L34.7364 4.78383L35.673 7.92497L33.1777 8.51911ZM31.4047 5.6355L34.4923 3.96522L34.3612 3.52553C33.7828 1.58563 31.3662 0.937028 29.897 2.32735L29.5642 2.64226L31.4047 5.6355ZM36.4867 7.73123L35.4869 4.37786L35.8707 4.17019C37.6492 3.20814 39.8158 4.46114 39.8733 6.4849L39.8857 6.92191L36.4867 7.73123ZM40.708 6.46113L40.7155 6.72436L40.993 6.65827C43.5644 6.04601 45.8779 8.36324 45.2667 10.939L45.2009 11.2164L45.4634 11.2239C48.1056 11.2992 49.7417 14.1372 48.4857 16.4668L48.3605 16.6986L48.6327 16.7801C51.1655 17.5378 52.012 20.7032 50.1972 22.6277L50.0012 22.835L50.2252 22.9732C52.4759 24.3616 52.4759 27.6387 50.2252 29.0271L50.0021 29.1648L50.1976 29.3721C52.0125 31.2966 51.1659 34.462 48.6331 35.2196L48.3605 35.3012L48.4857 35.5332C49.7417 37.8628 48.1056 40.7008 45.4634 40.7761L45.2005 40.7836L45.2662 41.0607C45.8775 43.6364 43.564 45.9537 40.9926 45.3415L40.7155 45.2756L40.708 45.539C40.6329 48.1855 37.7996 49.824 35.4739 48.5659L35.2431 48.4414L35.1618 48.7135C34.4055 51.2502 31.2453 52.0985 29.324 50.2806L29.1172 50.0848L28.9791 50.3092C27.5931 52.5636 24.3214 52.5636 22.9354 50.3092L22.7973 50.0848L22.5903 50.2806C20.6689 52.0985 17.5088 51.2506 16.7524 48.7139L16.671 48.4405L16.4393 48.5659C14.1137 49.824 11.2803 48.1855 11.2052 45.539L11.1977 45.2756L10.9217 45.3415C8.35024 45.9537 6.03688 43.6364 6.64812 41.0606L6.71385 40.7836L6.45085 40.7761C3.80879 40.7008 2.17298 37.8628 3.42894 35.5332L3.55391 35.3015L3.281 35.2198C0.748429 34.4622 -0.0983301 31.2967 1.71675 29.3722L1.91192 29.1653L1.68788 29.0271C-0.562623 27.6387 -0.562631 24.3616 1.68788 22.9732L1.91253 22.8346L1.71723 22.6276C-0.0978512 20.703 0.748906 17.5376 3.28147 16.7799L3.55386 16.6985L3.42894 16.4668C2.17299 14.1372 3.80879 11.2992 6.45085 11.2239L6.71343 11.2165L6.64761 10.9392C6.03638 8.3634 8.34978 6.04618 10.9212 6.65843L11.1978 6.72427L11.2052 6.46113C11.2803 3.81468 14.1137 2.17613 16.4393 3.43419L16.6713 3.5597L16.7529 3.286C17.5092 0.749203 20.6694 -0.0989708 22.5907 1.71915L22.7975 1.91484L22.9354 1.69071C24.3214 -0.563566 27.5931 -0.56357 28.9791 1.6907L29.1169 1.91482L29.3235 1.71931C31.2449 -0.098806 34.405 0.749363 35.1614 3.28616L35.2428 3.55925L35.4739 3.4342C37.7996 2.17614 40.6329 3.81468 40.708 6.46113ZM37.7118 11.84L40.0272 11.9059L40.093 14.2254C38.9492 13.8821 38.0544 12.9857 37.7118 11.84ZM44.0773 22.8828C43.258 22.0128 42.9306 20.7886 43.2056 19.6248L45.1779 20.8416L44.0773 22.8828ZM43.4087 18.7679L45.5752 20.1044L47.1381 17.2059L44.0019 16.2678L43.4087 18.7679ZM44.681 23.523L45.89 21.281L48.6896 23.0081L46.4427 25.3906L44.681 23.523ZM46.2873 20.5438L49.2753 22.387L49.5901 22.0533C50.978 20.5816 50.3303 18.161 48.394 17.5816L47.9553 17.4504L46.2873 20.5438ZM47.0171 25.9996L49.4155 23.4561L49.7873 23.6854C51.5084 24.7471 51.5084 27.2532 49.7873 28.3148L49.4164 28.5438L47.0171 25.9996ZM44.0768 29.1168L45.1779 31.1586L43.2052 32.3757C42.9297 31.2116 43.2575 29.9869 44.0768 29.1168ZM37.7122 40.16C38.0547 39.0143 38.9494 38.1179 40.093 37.7745L40.0272 40.0941L37.7122 40.16ZM40.9356 37.5225L40.8633 40.0703L44.1505 39.9766L43.3936 36.7871L40.9356 37.5225ZM37.4605 41.004L40.0034 40.9315L39.9099 44.2239L36.7265 43.4661L37.4605 41.004ZM40.8395 40.9078L40.7397 44.4214L41.1857 44.5275C43.152 44.9959 44.9213 43.2237 44.4536 41.2542L44.3477 40.8078L40.8395 40.9078ZM36.4871 44.2688L39.8857 45.0781L39.8733 45.5155C39.8158 47.5393 37.6492 48.7919 35.8708 47.8299L35.4871 47.6224L36.4871 44.2688ZM32.3223 43.277L31.1072 45.253L29.0685 44.1505C29.9373 43.3294 31.1601 43.0011 32.3223 43.277ZM19.5921 43.277C20.7542 43.0011 21.9768 43.329 22.8455 44.1501L20.8069 45.2526L19.5921 43.277ZM23.4847 44.7548L21.2456 45.9659L22.97 48.7705L25.3492 46.519L23.4847 44.7548ZM18.7366 43.4804L20.071 45.651L17.1774 47.216L16.2408 44.075L18.7366 43.4804ZM20.5096 46.3643L17.4215 48.0346L17.5526 48.4745C18.1309 50.4144 20.5476 51.0627 22.0168 49.6726L22.35 49.3572L20.5096 46.3643ZM15.4271 44.2688L16.4269 47.6219L16.0425 47.8299C14.264 48.7919 12.0974 47.5393 12.0399 45.5155L12.0275 45.0781L15.4271 44.2688ZM14.202 40.16L11.886 40.0941L11.8202 37.7744C12.9643 38.1175 13.8594 39.014 14.202 40.16ZM7.83743 29.1168C8.65699 29.9871 8.98455 31.212 8.70899 32.3762L6.73629 31.1592L7.83743 29.1168ZM8.50565 33.2331L6.33886 31.8963L4.77644 34.7942L7.91254 35.7324L8.50565 33.2331ZM7.23356 28.4765L6.02411 30.7198L3.22387 28.9923L5.47195 26.6087L7.23356 28.4765ZM5.62664 31.457L2.63815 29.6133L2.32378 29.9466C0.935777 31.4184 1.5833 33.839 3.51997 34.4183L3.9592 34.5497L5.62664 31.457ZM4.89755 25.9996L2.49764 28.5442L2.1258 28.3148C0.404824 27.2531 0.404824 24.7471 2.1258 23.6854L2.49825 23.4557L4.89755 25.9996ZM7.83718 22.8827L6.73641 20.841L8.70869 19.6243C8.98392 20.7881 8.65641 22.0126 7.83718 22.8827ZM14.2025 11.84C13.8597 12.986 12.9644 13.8825 11.8202 14.2255L11.8861 11.9059L14.2025 11.84ZM10.9777 14.4776L11.05 11.9298L7.76325 12.0234L8.52013 15.2128L10.9777 14.4776ZM7.56602 11.1922L11.0738 11.0923L11.1735 7.57829L10.7281 7.47223C8.7617 7.00402 6.99263 8.77605 7.46006 10.7457L7.56602 11.1922ZM12.0033 7.77585L11.9099 11.0685L14.4541 10.996L15.1881 8.53417L12.0033 7.77585ZM15.4275 7.73135L12.0275 6.92183L12.0399 6.4849C12.0974 4.46114 14.264 3.20814 16.0425 4.17019L16.4272 4.37832L15.4275 7.73135ZM19.5922 8.723L20.8068 6.7475L22.8449 7.84995C21.9763 8.6705 20.7539 8.99856 19.5922 8.723ZM47.5433 16.4541L44.1953 15.4526L45.0033 12.0476L45.44 12.0601C47.4604 12.1176 48.7114 14.2879 47.7505 16.0693L47.5433 16.4541ZM45.0029 39.9524L44.1949 36.5474L47.5433 35.5457L47.7505 35.9307C48.7114 37.7121 47.4604 39.8824 45.44 39.9399L45.0029 39.9524ZM23.4173 49.4981L25.9572 47.0944L28.4972 49.4981L28.2681 49.8705C27.2081 51.5945 24.7063 51.5945 23.6464 49.8705L23.4173 49.4981ZM4.37118 35.5459L7.71912 36.5475L6.91112 39.9524L6.47458 39.9399C4.4542 39.8824 3.20327 37.7121 4.16371 35.9307L4.37118 35.5459ZM6.9107 12.0476L7.7187 15.4525L4.37109 16.454L4.16371 16.0693C3.20327 14.2879 4.4542 12.1176 6.47454 12.0601L6.9107 12.0476ZM28.4969 2.50152L25.9572 4.90477L23.4175 2.50154L23.6464 2.12936C24.7063 0.405503 27.2081 0.405503 28.2681 2.12935L28.4969 2.50152Z"/>
</mask>
<path fill-rule="evenodd" clip-rule="evenodd" d="M28.2858 8.27328L28.4904 8.46682C29.5644 9.48321 31.0774 9.88927 32.5149 9.54699L32.7889 9.48178L32.9353 9.71997C33.7101 10.9802 35.0666 11.7646 36.5436 11.8067L36.8328 11.8149L36.9108 12.0766C37.3337 13.4948 38.4412 14.6042 39.857 15.0277L40.118 15.1058L40.1262 15.3961C40.1682 16.8755 40.9514 18.2343 42.2096 19.0104L42.4483 19.1578L42.3834 19.4319C42.0418 20.8719 42.447 22.3873 43.4618 23.4632L43.6544 23.6673L43.5217 23.9132C42.8196 25.2155 42.8196 26.7845 43.5217 28.0868L43.659 28.3418L43.4719 28.5405C42.4571 29.6164 42.0518 31.1319 42.3934 32.5718L42.4562 32.8375L42.2096 32.9898C40.9514 33.766 40.1682 35.1247 40.1262 36.6042L40.1183 36.886L39.8496 36.9663C38.4338 37.3899 37.3263 38.4993 36.9034 39.9175L36.8236 40.1853L36.5436 40.1933C35.0666 40.2354 33.7101 41.0198 32.9353 42.2802L32.7834 42.5272L32.5178 42.4639C31.0802 42.1217 29.5673 42.5276 28.4932 43.5441L28.2948 43.732L28.0399 43.594C26.7398 42.8908 25.1734 42.8908 23.8733 43.594L23.626 43.7278L23.4229 43.5357C22.3488 42.5192 20.8358 42.1133 19.3983 42.4555L19.1268 42.5201L18.9792 42.2802C18.2043 41.0198 16.8479 40.2354 15.3708 40.1933L15.081 40.1851L15.003 39.9233C14.5801 38.5051 13.4726 37.3957 12.0568 36.9722L11.7952 36.894L11.787 36.6042C11.745 35.1247 10.9619 33.766 9.70375 32.9898L9.46525 32.8427L9.52985 32.5704C9.87155 31.1305 9.46617 29.615 8.45147 28.5392L8.25893 28.335L8.39278 28.0868C9.0949 26.7845 9.0949 25.2155 8.39278 23.9132L8.25504 23.6577L8.4421 23.4594C9.45679 22.3835 9.86217 20.8681 9.52047 19.4281L9.45742 19.1624L9.70375 19.0104C10.9619 18.2343 11.745 16.8755 11.787 15.3961L11.7949 15.1164L12.0636 15.0361C13.4794 14.6125 14.5869 13.5031 15.0097 12.085L15.0903 11.8147L15.3708 11.8067C16.8479 11.7646 18.2043 10.9802 18.9792 9.71997L19.131 9.47297L19.396 9.53605C20.8335 9.87832 22.3465 9.47226 23.4206 8.45587L23.6186 8.2685L23.8733 8.40635C25.1734 9.10965 26.7398 9.10965 28.0399 8.40635L28.2858 8.27328ZM25.9497 6.06261L27.6466 7.66841L27.6431 7.67034C26.5906 8.23969 25.3226 8.23969 24.2701 7.67034L24.2578 7.66363L25.9497 6.06261ZM22.9647 3.23799L25.3417 5.48726L23.4841 7.24511L21.2454 6.03414L22.9647 3.23799ZM17.4294 3.96979L17.5566 3.54302C18.135 1.60312 20.5516 0.954515 22.0208 2.34484L22.3447 2.6513L20.5095 5.636L17.4294 3.96979ZM16.2495 7.92711L17.1853 4.7884L20.0709 6.34937L18.7367 8.51928L16.2495 7.92711ZM16.0101 8.72988L18.2756 9.26925L18.2681 9.28129C17.6409 10.3015 16.5428 10.9365 15.3471 10.9706L15.342 10.9707L16.0101 8.72988ZM8.71585 16.0376L10.9524 15.3685L10.9523 15.3723C10.9183 16.5699 10.2843 17.6699 9.2658 18.2982L9.25403 18.3054L8.71585 16.0376ZM4.78121 17.2146L7.91442 16.2773L8.50531 18.7673L6.33894 20.1038L4.78121 17.2146ZM2.6451 22.3826L2.33972 22.0589C0.951711 20.5872 1.59923 18.1665 3.5359 17.5872L3.96398 17.4591L5.62677 20.5432L2.6451 22.3826ZM5.47693 25.3853L3.23082 23.0037L6.02419 21.2804L7.23331 23.523L5.47693 25.3853ZM7.65507 27.6947L6.05132 25.9943L7.65117 24.298L7.65804 24.3107C8.2264 25.365 8.2264 26.635 7.65804 27.6893L7.65507 27.6947ZM8.72201 35.9746L9.26186 33.6996L9.2658 33.7021C10.2843 34.3304 10.9183 35.4303 10.9523 36.628L10.9526 36.6419L8.72201 35.9746ZM7.77225 39.9769L8.52859 36.7897L10.9776 37.5223L11.05 40.0702L7.77225 39.9769ZM11.1733 44.4139L10.7397 44.517C8.77329 44.9855 7.00422 43.2133 7.47165 41.2435L7.57498 40.8081L11.0738 40.9077L11.1733 44.4139ZM15.1855 43.4586L12.0031 44.2164L11.9098 40.9315L14.4537 41.004L15.1855 43.4586ZM18.2712 42.7239L15.9992 43.2648L15.3327 41.029L15.3471 41.0294C16.5428 41.0635 17.6409 41.6985 18.2681 42.7188L18.2712 42.7239ZM25.9625 45.9386L24.2652 44.3325L24.2701 44.33C25.3226 43.7605 26.5906 43.7605 27.643 44.33L27.6556 44.3367L25.9625 45.9386ZM28.9484 48.7643L26.5705 46.514L28.4293 44.7552L30.6686 45.9667L28.9484 48.7643ZM34.4844 48.0308L34.3566 48.4594C33.7782 50.3993 31.3616 51.0481 29.8924 49.6575L29.5684 49.3509L31.4045 46.3647L34.4844 48.0308ZM35.6645 44.0729L34.7285 47.2122L31.8432 45.6514L33.1777 43.4808L35.6645 44.0729ZM36.5719 41.0293L35.9038 43.2703L33.6389 42.731L33.6463 42.7188C34.2736 41.6985 35.3717 41.0635 36.5673 41.0294L36.5719 41.0293ZM43.1985 35.9645L40.9608 36.6339L40.961 36.628C40.995 35.4303 41.629 34.3304 42.6476 33.7021L42.6597 33.6945L43.1985 35.9645ZM47.1343 34.7871L43.9998 35.7248L43.4083 33.2326L45.5752 31.8958L47.1343 34.7871ZM49.2669 29.6184L49.5734 29.9435C50.9616 31.4153 50.314 33.8359 48.3773 34.4152L47.9515 34.5426L46.2873 31.4564L49.2669 29.6184ZM46.4356 26.6162L48.6812 28.9973L45.89 30.7193L44.681 28.4765L46.4356 26.6162ZM44.2581 24.3076L45.8612 26.0072L44.2631 27.7015L44.2564 27.6893C43.6879 26.635 43.6879 25.365 44.2564 24.3107L44.2581 24.3076ZM43.1918 16.0254L42.6517 18.3009L42.6476 18.2982C41.629 17.6699 40.995 16.5699 40.961 15.3723L40.9605 15.3579L43.1918 16.0254ZM44.1417 12.0231L43.3852 15.2103L40.9356 14.4774L40.8633 11.9297L44.1417 12.0231ZM40.74 7.58856L41.1735 7.48536C43.1399 7.01715 44.9091 8.78918 44.4415 10.7588L44.3389 11.1919L40.8395 11.0922L40.74 7.58856ZM36.7289 8.54364L39.9102 7.78616L40.0034 11.0685L37.4601 10.996L36.7289 8.54364ZM33.6443 9.27806L35.9152 8.73738L36.5812 10.971L36.5673 10.9706C35.3717 10.9365 34.2736 10.3015 33.6463 9.28129L33.6443 9.27806ZM32.3222 8.72279C31.1602 8.99843 29.9378 8.67029 29.0691 7.84957L31.1073 6.747L32.3222 8.72279ZM28.4299 7.24469L30.6687 6.03364L28.9442 3.22896L26.5652 5.48013L28.4299 7.24469ZM33.1777 8.51911L31.8433 6.34887L34.7364 4.78383L35.673 7.92497L33.1777 8.51911ZM31.4047 5.6355L34.4923 3.96522L34.3612 3.52553C33.7828 1.58563 31.3662 0.937028 29.897 2.32735L29.5642 2.64226L31.4047 5.6355ZM36.4867 7.73123L35.4869 4.37786L35.8707 4.17019C37.6492 3.20814 39.8158 4.46114 39.8733 6.4849L39.8857 6.92191L36.4867 7.73123ZM40.708 6.46113L40.7155 6.72436L40.993 6.65827C43.5644 6.04601 45.8779 8.36324 45.2667 10.939L45.2009 11.2164L45.4634 11.2239C48.1056 11.2992 49.7417 14.1372 48.4857 16.4668L48.3605 16.6986L48.6327 16.7801C51.1655 17.5378 52.012 20.7032 50.1972 22.6277L50.0012 22.835L50.2252 22.9732C52.4759 24.3616 52.4759 27.6387 50.2252 29.0271L50.0021 29.1648L50.1976 29.3721C52.0125 31.2966 51.1659 34.462 48.6331 35.2196L48.3605 35.3012L48.4857 35.5332C49.7417 37.8628 48.1056 40.7008 45.4634 40.7761L45.2005 40.7836L45.2662 41.0607C45.8775 43.6364 43.564 45.9537 40.9926 45.3415L40.7155 45.2756L40.708 45.539C40.6329 48.1855 37.7996 49.824 35.4739 48.5659L35.2431 48.4414L35.1618 48.7135C34.4055 51.2502 31.2453 52.0985 29.324 50.2806L29.1172 50.0848L28.9791 50.3092C27.5931 52.5636 24.3214 52.5636 22.9354 50.3092L22.7973 50.0848L22.5903 50.2806C20.6689 52.0985 17.5088 51.2506 16.7524 48.7139L16.671 48.4405L16.4393 48.5659C14.1137 49.824 11.2803 48.1855 11.2052 45.539L11.1977 45.2756L10.9217 45.3415C8.35024 45.9537 6.03688 43.6364 6.64812 41.0606L6.71385 40.7836L6.45085 40.7761C3.80879 40.7008 2.17298 37.8628 3.42894 35.5332L3.55391 35.3015L3.281 35.2198C0.748429 34.4622 -0.0983301 31.2967 1.71675 29.3722L1.91192 29.1653L1.68788 29.0271C-0.562623 27.6387 -0.562631 24.3616 1.68788 22.9732L1.91253 22.8346L1.71723 22.6276C-0.0978512 20.703 0.748906 17.5376 3.28147 16.7799L3.55386 16.6985L3.42894 16.4668C2.17299 14.1372 3.80879 11.2992 6.45085 11.2239L6.71343 11.2165L6.64761 10.9392C6.03638 8.3634 8.34978 6.04618 10.9212 6.65843L11.1978 6.72427L11.2052 6.46113C11.2803 3.81468 14.1137 2.17613 16.4393 3.43419L16.6713 3.5597L16.7529 3.286C17.5092 0.749203 20.6694 -0.0989708 22.5907 1.71915L22.7975 1.91484L22.9354 1.69071C24.3214 -0.563566 27.5931 -0.56357 28.9791 1.6907L29.1169 1.91482L29.3235 1.71931C31.2449 -0.098806 34.405 0.749363 35.1614 3.28616L35.2428 3.55925L35.4739 3.4342C37.7996 2.17614 40.6329 3.81468 40.708 6.46113ZM37.7118 11.84L40.0272 11.9059L40.093 14.2254C38.9492 13.8821 38.0544 12.9857 37.7118 11.84ZM44.0773 22.8828C43.258 22.0128 42.9306 20.7886 43.2056 19.6248L45.1779 20.8416L44.0773 22.8828ZM43.4087 18.7679L45.5752 20.1044L47.1381 17.2059L44.0019 16.2678L43.4087 18.7679ZM44.681 23.523L45.89 21.281L48.6896 23.0081L46.4427 25.3906L44.681 23.523ZM46.2873 20.5438L49.2753 22.387L49.5901 22.0533C50.978 20.5816 50.3303 18.161 48.394 17.5816L47.9553 17.4504L46.2873 20.5438ZM47.0171 25.9996L49.4155 23.4561L49.7873 23.6854C51.5084 24.7471 51.5084 27.2532 49.7873 28.3148L49.4164 28.5438L47.0171 25.9996ZM44.0768 29.1168L45.1779 31.1586L43.2052 32.3757C42.9297 31.2116 43.2575 29.9869 44.0768 29.1168ZM37.7122 40.16C38.0547 39.0143 38.9494 38.1179 40.093 37.7745L40.0272 40.0941L37.7122 40.16ZM40.9356 37.5225L40.8633 40.0703L44.1505 39.9766L43.3936 36.7871L40.9356 37.5225ZM37.4605 41.004L40.0034 40.9315L39.9099 44.2239L36.7265 43.4661L37.4605 41.004ZM40.8395 40.9078L40.7397 44.4214L41.1857 44.5275C43.152 44.9959 44.9213 43.2237 44.4536 41.2542L44.3477 40.8078L40.8395 40.9078ZM36.4871 44.2688L39.8857 45.0781L39.8733 45.5155C39.8158 47.5393 37.6492 48.7919 35.8708 47.8299L35.4871 47.6224L36.4871 44.2688ZM32.3223 43.277L31.1072 45.253L29.0685 44.1505C29.9373 43.3294 31.1601 43.0011 32.3223 43.277ZM19.5921 43.277C20.7542 43.0011 21.9768 43.329 22.8455 44.1501L20.8069 45.2526L19.5921 43.277ZM23.4847 44.7548L21.2456 45.9659L22.97 48.7705L25.3492 46.519L23.4847 44.7548ZM18.7366 43.4804L20.071 45.651L17.1774 47.216L16.2408 44.075L18.7366 43.4804ZM20.5096 46.3643L17.4215 48.0346L17.5526 48.4745C18.1309 50.4144 20.5476 51.0627 22.0168 49.6726L22.35 49.3572L20.5096 46.3643ZM15.4271 44.2688L16.4269 47.6219L16.0425 47.8299C14.264 48.7919 12.0974 47.5393 12.0399 45.5155L12.0275 45.0781L15.4271 44.2688ZM14.202 40.16L11.886 40.0941L11.8202 37.7744C12.9643 38.1175 13.8594 39.014 14.202 40.16ZM7.83743 29.1168C8.65699 29.9871 8.98455 31.212 8.70899 32.3762L6.73629 31.1592L7.83743 29.1168ZM8.50565 33.2331L6.33886 31.8963L4.77644 34.7942L7.91254 35.7324L8.50565 33.2331ZM7.23356 28.4765L6.02411 30.7198L3.22387 28.9923L5.47195 26.6087L7.23356 28.4765ZM5.62664 31.457L2.63815 29.6133L2.32378 29.9466C0.935777 31.4184 1.5833 33.839 3.51997 34.4183L3.9592 34.5497L5.62664 31.457ZM4.89755 25.9996L2.49764 28.5442L2.1258 28.3148C0.404824 27.2531 0.404824 24.7471 2.1258 23.6854L2.49825 23.4557L4.89755 25.9996ZM7.83718 22.8827L6.73641 20.841L8.70869 19.6243C8.98392 20.7881 8.65641 22.0126 7.83718 22.8827ZM14.2025 11.84C13.8597 12.986 12.9644 13.8825 11.8202 14.2255L11.8861 11.9059L14.2025 11.84ZM10.9777 14.4776L11.05 11.9298L7.76325 12.0234L8.52013 15.2128L10.9777 14.4776ZM7.56602 11.1922L11.0738 11.0923L11.1735 7.57829L10.7281 7.47223C8.7617 7.00402 6.99263 8.77605 7.46006 10.7457L7.56602 11.1922ZM12.0033 7.77585L11.9099 11.0685L14.4541 10.996L15.1881 8.53417L12.0033 7.77585ZM15.4275 7.73135L12.0275 6.92183L12.0399 6.4849C12.0974 4.46114 14.264 3.20814 16.0425 4.17019L16.4272 4.37832L15.4275 7.73135ZM19.5922 8.723L20.8068 6.7475L22.8449 7.84995C21.9763 8.6705 20.7539 8.99856 19.5922 8.723ZM47.5433 16.4541L44.1953 15.4526L45.0033 12.0476L45.44 12.0601C47.4604 12.1176 48.7114 14.2879 47.7505 16.0693L47.5433 16.4541ZM45.0029 39.9524L44.1949 36.5474L47.5433 35.5457L47.7505 35.9307C48.7114 37.7121 47.4604 39.8824 45.44 39.9399L45.0029 39.9524ZM23.4173 49.4981L25.9572 47.0944L28.4972 49.4981L28.2681 49.8705C27.2081 51.5945 24.7063 51.5945 23.6464 49.8705L23.4173 49.4981ZM4.37118 35.5459L7.71912 36.5475L6.91112 39.9524L6.47458 39.9399C4.4542 39.8824 3.20327 37.7121 4.16371 35.9307L4.37118 35.5459ZM6.9107 12.0476L7.7187 15.4525L4.37109 16.454L4.16371 16.0693C3.20327 14.2879 4.4542 12.1176 6.47454 12.0601L6.9107 12.0476ZM28.4969 2.50152L25.9572 4.90477L23.4175 2.50154L23.6464 2.12936C24.7063 0.405503 27.2081 0.405503 28.2681 2.12935L28.4969 2.50152Z" fill="white" stroke="white" stroke-width="0.4" mask="url(#path-1-inside-1_125_4398)"/>
<path d="M28.1926 31.6853C31.1005 30.4256 34.1364 24.6566 35.764 21.2792C33.8437 20.3481 27.3697 18.705 23.1999 20.129C19.0302 21.553 17.7134 26.3179 18.3718 28.2348C20.8956 26.537 24.5167 25.2773 27.5891 24.7297C22.7171 26.2194 16.5064 30.3161 14.1472 32.5068C16.671 30.9733 18.701 30.3161 19.4142 30.3161C21.6253 32.9128 25.2848 32.945 28.1926 31.6853Z" fill="#FAFAFA"/>
<path d="M64.523 13.8555C62.8987 13.8555 61.5757 12.6645 61.5757 10.9033C61.5757 9.14197 62.8987 7.951 64.523 7.951C65.6618 7.951 66.6498 8.52971 67.1355 9.50261L70.0995 8.11036C69.1199 6.09745 67.0266 4.88132 64.523 4.88132C60.9896 4.88132 58.2935 7.29681 58.2935 10.9033C58.2935 14.5097 60.9896 16.9252 64.523 16.9252C67.0266 16.9252 69.1199 15.7091 70.0995 13.6962L67.1355 12.3039C66.6498 13.2768 65.6618 13.8555 64.523 13.8555ZM77.7207 16.7742H80.8606V12.1613C80.8606 9.19229 79.9312 7.38907 77.2435 7.38907C75.887 7.38907 74.8571 7.85874 74.4134 8.64713V4.19358H71.2734V16.7742H74.4134V12.1613C74.4134 10.8445 75.0581 10.0478 76.155 10.0478C77.277 10.0478 77.7207 10.8026 77.7207 12.1613V16.7742ZM83.7556 6.60907C84.7437 6.60907 85.5559 5.78713 85.5559 4.78907C85.5559 3.80778 84.7437 2.98584 83.7556 2.98584C82.7592 2.98584 81.947 3.80778 81.947 4.78907C81.947 5.78713 82.7592 6.60907 83.7556 6.60907ZM82.1815 7.54842V16.7742H85.3214V7.54842H82.1815ZM90.5575 7.38907C88.1879 7.38907 86.3375 9.30971 86.3375 12.1613C86.3375 15.0129 88.1879 16.9336 90.5575 16.9336C91.914 16.9336 92.9606 16.5058 93.4044 15.6755L93.5467 16.7742H96.5443V7.54842H93.5467L93.4044 8.64713C92.9606 7.85874 91.914 7.38907 90.5575 7.38907ZM91.4367 14.2749C90.3566 14.2749 89.4774 13.4697 89.4774 12.1613C89.4774 10.8529 90.3566 10.0478 91.4367 10.0478C92.5252 10.0478 93.4044 10.8529 93.4044 12.1613C93.4044 13.4697 92.5252 14.2749 91.4367 14.2749ZM64.523 29.791C62.8987 29.791 61.5757 28.6 61.5757 26.8387C61.5757 25.0775 62.8987 23.8865 64.523 23.8865C65.6618 23.8865 66.6498 24.4652 67.1355 25.4381L70.0995 24.0458C69.1199 22.0329 67.0266 20.8168 64.523 20.8168C60.9896 20.8168 58.2935 23.2323 58.2935 26.8387C58.2935 30.4452 60.9896 32.8607 64.523 32.8607C67.0266 32.8607 69.1199 31.6445 70.0995 29.6316L67.1355 28.2394C66.6498 29.2123 65.6618 29.791 64.523 29.791ZM74.4217 23.4839H71.2818V28.0968C71.2818 31.0658 72.1777 32.8691 74.8236 32.8691C76.1884 32.8691 77.1597 32.3994 77.6035 31.611L77.7458 32.7097H80.7434V23.4839H77.6035V28.0968C77.6035 29.4136 77.0258 30.2104 75.9205 30.2104C74.8404 30.2104 74.4217 29.4471 74.4217 28.0968V23.4839ZM82.2141 20.1291V32.7097H85.3541V20.1291H82.2141ZM87.7923 21.4375V23.4839H86.6787V25.9245H87.7923V29.2207C87.7923 31.6613 88.6966 32.8607 91.1583 32.8607C91.6272 32.8607 92.4896 32.802 92.9836 32.7265V30.16C92.4478 30.2523 91.9454 30.2607 91.5518 30.1181C91.1332 29.9923 90.9239 29.6652 90.9239 29.1033V25.9245H92.9836V23.4839H90.9239V21.4375H87.7923ZM95.743 22.5445C96.731 22.5445 97.5432 21.7226 97.5432 20.7245C97.5432 19.7433 96.731 18.9213 95.743 18.9213C94.7466 18.9213 93.9344 19.7433 93.9344 20.7245C93.9344 21.7226 94.7466 22.5445 95.743 22.5445ZM94.1688 23.4839V32.7097H97.3088V23.4839H94.1688ZM105.575 23.4839L103.59 29.9168L101.597 23.4839H98.2482L101.279 32.7097H105.884L108.924 23.4839H105.575ZM113.158 23.3245C110.789 23.3245 108.938 25.2452 108.938 28.0968C108.938 30.9484 110.789 32.8691 113.158 32.8691C114.515 32.8691 115.561 32.4413 116.005 31.611L116.147 32.7097H119.145V23.4839H116.147L116.005 24.5826C115.561 23.7942 114.515 23.3245 113.158 23.3245ZM114.037 30.2104C112.957 30.2104 112.078 29.4052 112.078 28.0968C112.078 26.7884 112.957 25.9833 114.037 25.9833C115.126 25.9833 116.005 26.7884 116.005 28.0968C116.005 29.4052 115.126 30.2104 114.037 30.2104ZM121.53 21.4375V23.4839H120.416V25.9245H121.53V29.2207C121.53 31.6613 122.434 32.8607 124.896 32.8607C125.365 32.8607 126.227 32.802 126.721 32.7265V30.16C126.185 30.2523 125.683 30.2607 125.29 30.1181C124.871 29.9923 124.662 29.6652 124.662 29.1033V25.9245H126.721V23.4839H124.662V21.4375H121.53ZM129.481 22.5445C130.469 22.5445 131.281 21.7226 131.281 20.7245C131.281 19.7433 130.469 18.9213 129.481 18.9213C128.484 18.9213 127.672 19.7433 127.672 20.7245C127.672 21.7226 128.484 22.5445 129.481 22.5445ZM127.907 23.4839V32.7097H131.046V23.4839H127.907ZM137.161 32.8607C139.883 32.8607 142.269 31.1581 142.269 28.0968C142.269 25.0355 139.883 23.3329 137.161 23.3329C134.432 23.3329 132.062 25.0355 132.062 28.0968C132.062 31.1581 134.432 32.8607 137.161 32.8607ZM137.161 30.2104C136.081 30.2104 135.194 29.4052 135.194 28.0968C135.194 26.7884 136.081 25.9833 137.161 25.9833C138.242 25.9833 139.129 26.7884 139.129 28.0968C139.129 29.4052 138.242 30.2104 137.161 30.2104ZM149.658 32.7097H152.789V28.0968C152.789 25.1278 151.893 23.3245 149.248 23.3245C147.883 23.3245 146.911 23.7942 146.468 24.5826L146.325 23.4839H143.328V32.7097H146.468V28.0968C146.468 26.78 147.045 25.9833 148.159 25.9833C149.239 25.9833 149.658 26.7381 149.658 28.0968V32.7097ZM64.1714 42.0529V43.9904H67.1438C66.6498 44.9297 65.6618 45.7265 64.523 45.7265C62.8987 45.7265 61.5757 44.5271 61.5757 42.7742C61.5757 41.0129 62.8987 39.822 64.523 39.822C65.6618 39.822 66.6498 40.4007 67.1355 41.3736L70.0995 39.9813C69.1199 37.9684 67.035 36.7523 64.523 36.7523C60.9896 36.7523 58.2935 39.1678 58.2935 42.7742C58.2935 46.3807 60.9896 48.7962 64.523 48.7962C68.0481 48.7962 70.7526 46.3807 70.7526 42.7742V42.0529H64.1714ZM71.9278 39.4194V48.6452H75.0677V44.0323C75.0677 42.7155 75.9218 41.9187 77.8978 41.9187V39.2684C76.5414 39.2684 75.6036 39.6207 75.0677 40.4426L74.9254 39.4194H71.9278ZM82.4298 39.26C80.0602 39.26 78.2097 41.1807 78.2097 44.0323C78.2097 46.8839 80.0602 48.8045 82.4298 48.8045C83.7862 48.8045 84.8328 48.3768 85.2766 47.5465L85.419 48.6452H88.4165V39.4194H85.419L85.2766 40.5181C84.8328 39.7297 83.7862 39.26 82.4298 39.26ZM83.3089 46.1458C82.2288 46.1458 81.3496 45.3407 81.3496 44.0323C81.3496 42.7239 82.2288 41.9187 83.3089 41.9187C84.3974 41.9187 85.2766 42.7239 85.2766 44.0323C85.2766 45.3407 84.3974 46.1458 83.3089 46.1458ZM96.2303 48.6452H99.3618V44.0323C99.3618 41.0633 98.4659 39.26 95.82 39.26C94.4552 39.26 93.4839 39.7297 93.0401 40.5181L92.8978 39.4194H89.9002V48.6452H93.0401V44.0323C93.0401 42.7155 93.6179 41.9187 94.7315 41.9187C95.8116 41.9187 96.2303 42.6736 96.2303 44.0323V48.6452ZM101.137 37.3729V39.4194H100.023V41.86H101.137V45.1562C101.137 47.5968 102.041 48.7962 104.503 48.7962C104.972 48.7962 105.834 48.7374 106.328 48.662V46.0955C105.792 46.1878 105.29 46.1962 104.896 46.0536C104.478 45.9278 104.268 45.6007 104.268 45.0387V41.86H106.328V39.4194H104.268V37.3729H101.137ZM121.912 41.2226C121.912 38.6813 120.279 36.9033 117.039 36.9033H112.023V48.6452H115.372V45.5336H116.687L118.529 48.6452H121.887L119.676 45.0136C121.167 44.3091 121.912 42.942 121.912 41.2226ZM115.364 42.8833V39.5536H116.687C117.834 39.5536 118.563 40.2833 118.563 41.2226C118.563 42.162 117.826 42.8833 116.687 42.8833H115.364ZM127.709 39.26C124.979 39.26 122.61 40.971 122.61 44.0323C122.61 47.0936 124.979 48.8045 127.709 48.8045C129.534 48.8045 131.234 47.9994 132.13 46.5316L129.459 45.24C129.074 45.9445 128.513 46.3471 127.709 46.3471C126.863 46.3471 126.126 45.8103 125.859 44.8794H132.674C132.967 41.2645 130.757 39.26 127.709 39.26ZM127.709 41.7174C128.672 41.7174 129.342 42.2542 129.576 43.1852H125.842C126.085 42.2542 126.746 41.7174 127.709 41.7174ZM138.781 46.2129C137.701 46.2129 136.813 45.4078 136.813 44.0323C136.813 42.6568 137.701 41.8516 138.781 41.8516C139.551 41.8516 140.213 42.2542 140.522 43.1265L143.394 41.9774C142.657 40.2916 140.832 39.2684 138.781 39.2684C136.051 39.2684 133.682 40.971 133.682 44.0323C133.682 47.0936 136.051 48.7962 138.781 48.7962C140.832 48.7962 142.657 47.7729 143.394 46.0871L140.522 44.9381C140.213 45.8104 139.551 46.2129 138.781 46.2129ZM146.031 38.48C147.019 38.48 147.831 37.6581 147.831 36.66C147.831 35.6787 147.019 34.8568 146.031 34.8568C145.034 34.8568 144.222 35.6787 144.222 36.66C144.222 37.6581 145.034 38.48 146.031 38.48ZM144.456 39.4194V48.6452H147.596V39.4194H144.456ZM155.055 48.8045C157.424 48.8045 159.275 46.8839 159.275 44.0323C159.275 41.1807 157.424 39.26 155.055 39.26C153.698 39.26 152.652 39.6878 152.208 40.5181L152.065 39.4194H149.068V52H152.208V47.5465C152.652 48.3349 153.698 48.8045 155.055 48.8045ZM154.176 41.9187C155.256 41.9187 156.135 42.7239 156.135 44.0323C156.135 45.3407 155.256 46.1458 154.176 46.1458C153.087 46.1458 152.208 45.3407 152.208 44.0323C152.208 42.7239 153.087 41.9187 154.176 41.9187ZM161.91 38.48C162.898 38.48 163.71 37.6581 163.71 36.66C163.71 35.6787 162.898 34.8568 161.91 34.8568C160.913 34.8568 160.101 35.6787 160.101 36.66C160.101 37.6581 160.913 38.48 161.91 38.48ZM160.336 39.4194V48.6452H163.476V39.4194H160.336ZM169.591 39.26C166.861 39.26 164.492 40.971 164.492 44.0323C164.492 47.0936 166.861 48.8045 169.591 48.8045C171.416 48.8045 173.116 47.9994 174.012 46.5316L171.341 45.24C170.956 45.9445 170.395 46.3471 169.591 46.3471C168.745 46.3471 168.008 45.8103 167.74 44.8794H174.556C174.849 41.2645 172.639 39.26 169.591 39.26ZM169.591 41.7174C170.554 41.7174 171.224 42.2542 171.458 43.1852H167.724C167.966 42.2542 168.628 41.7174 169.591 41.7174ZM181.973 48.6452H185.104V44.0323C185.104 41.0633 184.209 39.26 181.563 39.26C180.198 39.26 179.227 39.7297 178.783 40.5181L178.64 39.4194H175.643V48.6452H178.783V44.0323C178.783 42.7155 179.361 41.9187 180.474 41.9187C181.554 41.9187 181.973 42.6736 181.973 44.0323V48.6452ZM186.88 37.3729V39.4194H185.766V41.86H186.88V45.1562C186.88 47.5968 187.784 48.7962 190.246 48.7962C190.714 48.7962 191.577 48.7374 192.071 48.662V46.0955C191.535 46.1878 191.033 46.1962 190.639 46.0536C190.22 45.9278 190.011 45.6007 190.011 45.0387V41.86H192.071V39.4194H190.011V37.3729H186.88Z" fill="white"/>
</g>
<defs>
<clipPath id="clip0_125_4398">
<rect width="193" height="52" fill="white"/>
</clipPath>
</defs>
</svg>
