<svg width="163" height="49" viewBox="0 0 163 49" fill="none" xmlns="http://www.w3.org/2000/svg">
<g clip-path="url(#clip0_136_2724)">
<path d="M24.5329 41.8439V5.36561L22.1017 2.4563L17.0183 2.68009L9.72474 6.26078L10.1668 10.0653L6.40949 10.7366L2.6522 21.7025L4.64135 23.7166L2.43118 25.9546L4.86237 31.1018L13.703 30.4304" stroke="white" stroke-linecap="round" stroke-linejoin="round"/>
<path d="M24.5329 41.8439L21.8807 46.3198L19.8915 45.8722L17.4603 46.3198L13.703 44.5294L24.5329 27.9688" stroke="white" stroke-linecap="round" stroke-linejoin="round"/>
<path d="M14.1451 30.4304L7.29355 35.3539L12.1559 40.9487L21.8807 46.3197" stroke="white" stroke-linecap="round" stroke-linejoin="round"/>
<path d="M5.08339 31.3257L9.28271 33.5636" stroke="white" stroke-linecap="round" stroke-linejoin="round"/>
<path d="M4.42033 23.7166L20.5546 33.5634L24.5329 38.7107" stroke="white" stroke-linecap="round" stroke-linejoin="round"/>
<path d="M24.3119 41.8438L15.4712 42.2913" stroke="white" stroke-linecap="round" stroke-linejoin="round"/>
<path d="M10.1668 9.84155L13.9241 16.7791L14.8081 23.7167L14.5871 41.8439" stroke="white" stroke-linecap="round" stroke-linejoin="round"/>
<path d="M4.42033 23.7167L13.703 16.5553L24.0908 11.6318" stroke="white" stroke-linecap="round" stroke-linejoin="round"/>
<path d="M4.64136 23.269L10.1668 10.289L19.2285 2.90381" stroke="white" stroke-linecap="round" stroke-linejoin="round"/>
<path d="M10.1668 10.0652L20.3336 13.4221L24.5329 16.1076" stroke="white" stroke-linecap="round" stroke-linejoin="round"/>
<path d="M4.86237 23.4929H14.5871L20.5546 13.646L22.5437 3.79907" stroke="white" stroke-linecap="round" stroke-linejoin="round"/>
<path d="M24.3119 21.2549L14.8081 23.7166L20.7756 33.3397L21.4386 41.8438" stroke="white" stroke-linecap="round" stroke-linejoin="round"/>
<path d="M24.8885 42.0676H27.0505" stroke="white" stroke-linejoin="round"/>
<path d="M24.8885 38.4871H27.0505" stroke="white" stroke-linejoin="round"/>
<path d="M24.8885 28.4163H27.0505" stroke="white" stroke-linejoin="round"/>
<path d="M24.8885 21.2549H27.0505" stroke="white" stroke-linejoin="round"/>
<path d="M24.8885 16.1077H27.0505" stroke="white" stroke-linejoin="round"/>
<path d="M24.8885 11.6318H27.0505" stroke="white" stroke-linejoin="round"/>
<path d="M27.1864 41.9388V5.39366L29.6209 2.47876L34.7118 2.70255L42.0153 6.2904L41.5733 10.1018L45.3359 10.7743L49.0987 21.7603L47.1067 23.778L49.3199 26.0202L46.8852 31.1768L38.0319 30.5041" stroke="white" stroke-linecap="round" stroke-linejoin="round"/>
<path d="M27.1864 41.9388L29.8424 46.4227L31.8344 45.9751L34.2691 46.4227L38.0317 44.6292L27.1864 28.0381" stroke="white" stroke-linecap="round" stroke-linejoin="round"/>
<path d="M37.589 30.5044L44.4505 35.437L39.581 41.0419L29.8424 46.4228" stroke="white" stroke-linecap="round" stroke-linejoin="round"/>
<path d="M46.6637 31.4014L42.4585 33.6433" stroke="white" stroke-linecap="round" stroke-linejoin="round"/>
<path d="M47.3277 23.7783L31.1713 33.6433L27.1864 38.8004" stroke="white" stroke-linecap="round" stroke-linejoin="round"/>
<path d="M27.4076 41.9387L36.2611 42.3863" stroke="white" stroke-linecap="round" stroke-linejoin="round"/>
<path d="M41.5733 9.87769L37.8105 16.828L36.9251 23.7784L37.1461 41.9389" stroke="white" stroke-linecap="round" stroke-linejoin="round"/>
<path d="M47.3277 23.7781L38.0317 16.6038L27.6291 11.6714" stroke="white" stroke-linecap="round" stroke-linejoin="round"/>
<path d="M47.1064 23.3299L41.5733 10.326L32.4983 2.92627" stroke="white" stroke-linecap="round" stroke-linejoin="round"/>
<path d="M41.5733 10.1021L31.3917 13.465L27.1864 16.1554" stroke="white" stroke-linecap="round" stroke-linejoin="round"/>
<path d="M46.885 23.5543H37.1463L31.1704 13.6892L29.1784 3.82422" stroke="white" stroke-linecap="round" stroke-linejoin="round"/>
<path d="M27.4076 21.312L36.9251 23.7782L30.949 33.419L30.2859 41.9388" stroke="white" stroke-linecap="round" stroke-linejoin="round"/>
<path fill-rule="evenodd" clip-rule="evenodd" d="M68.2136 40.4232V25.7581H64.5823V31.4899H58.8568V25.7581H55.2257V40.4232H58.8568V34.5397H64.5812V40.4232H68.2125H68.2136ZM85.3669 33.0906C85.3669 29.3269 82.8473 25.4119 77.6127 25.4119C72.3782 25.4119 69.8584 29.3269 69.8584 33.0906C69.8584 36.8544 72.3791 40.7697 77.6127 40.7697C82.8464 40.7697 85.3669 36.8533 85.3669 33.0906ZM81.6501 33.0906C81.6501 35.5564 80.3255 37.7411 77.6127 37.7411C74.9 37.7411 73.5752 35.5564 73.5752 33.0906C73.5752 30.6249 74.8998 28.4185 77.6127 28.4185C80.3257 28.4185 81.6501 30.6247 81.6501 33.0906ZM97.5854 40.4232V37.3517H90.6432V25.7592H87.0117V40.4243H97.5856L97.5854 40.4232ZM112.346 33.0264C112.346 30.7769 111.556 28.8086 110.039 27.4674C108.202 25.8451 105.746 25.7587 103.31 25.7587H98.5895V40.4239H103.31C105.126 40.4239 107.882 40.4239 110.039 38.5203C111.535 37.2004 112.346 35.2536 112.346 33.0264ZM108.629 33.0264C108.629 34.3468 108.266 35.5788 107.455 36.3791C106.451 37.3955 105.19 37.4389 103.866 37.4389H102.22V28.7213H103.865C105.211 28.7213 106.535 28.7213 107.454 29.6514C108.33 30.5383 108.63 31.7929 108.63 33.0264H108.629ZM117.623 40.4239V25.7587H113.991V40.4239H117.623ZM132.896 40.4239V25.7587H129.499V34.7351L123.518 25.7587H119.908V40.4239H123.305V31.4467L129.287 40.4232H132.897L132.896 40.4239ZM149.003 40.4239V31.9874H142.273V34.7993H146.033C146.033 36.7687 144.26 37.7411 142.423 37.7411C139.817 37.7411 138.236 35.6862 138.236 33.0689C138.236 30.6247 139.667 28.4402 142.509 28.4402C143.188 28.4381 143.861 28.577 144.486 28.8486C145.11 29.1202 145.673 29.5185 146.14 30.0191L148.255 27.8778C147.977 27.5316 146.183 25.4119 142.38 25.4119C137.275 25.4119 134.541 28.9592 134.541 33.1121C134.541 37.2868 137.147 40.7692 141.782 40.7692C144.538 40.7692 146.14 39.2118 146.247 39.0606L146.289 40.4232H149.002L149.003 40.4239ZM162.93 36.0763C162.93 29.6953 153.979 32.3342 153.979 29.7387C153.979 28.9167 154.834 28.3543 156.372 28.3543C159.128 28.3543 160.644 29.8036 160.772 29.9117L162.78 27.5755C162.524 27.3161 160.751 25.4125 156.393 25.4125C152.783 25.4125 150.39 27.2512 150.39 29.9108C150.39 35.9671 159.297 33.5879 159.297 36.2701C159.297 37.3082 158.165 37.7626 156.478 37.7626C154.822 37.7892 153.21 37.2222 151.927 36.1618L150.005 38.6492C150.261 38.9088 152.29 40.769 156.477 40.769C160.132 40.7697 162.93 39.1037 162.93 36.0756V36.0763Z" fill="white"/>
<path fill-rule="evenodd" clip-rule="evenodd" d="M67.2113 18.1443C67.2113 16.5735 66.4017 15.1392 64.378 14.6156C64.8278 14.4106 66.6264 13.5456 66.6264 10.9729C66.6423 10.0212 66.2961 9.09977 65.6597 8.39927C64.4905 7.16998 62.6468 7.16998 60.6908 7.16998H55.2489V22.6054H60.5326C62.8035 22.6054 64.9845 22.5372 66.2436 20.9661C66.8752 20.1651 67.2167 19.1693 67.2113 18.1443ZM64.7372 11.3587C64.7372 13.7721 62.7136 13.9547 60.8915 13.9547H57.115V8.78621H60.7576C62.5337 8.78621 64.7372 8.78621 64.7372 11.3587ZM65.2544 18.166C65.2544 21.1257 62.4662 20.9664 60.3303 20.9664H57.115V15.5483H60.8475C63.0734 15.5483 65.2544 15.6844 65.2544 18.1667V18.166ZM71.932 22.6056V7.16975H70.0434V22.6054H71.932V22.6056ZM88.7956 22.6056V14.4777H82.1622V16.1624H87.0862V16.6178C87.0862 18.166 86.1643 21.2394 82.207 21.2394C78.2729 21.2394 76.7435 18.2569 76.7435 14.8875C76.7435 11.5863 78.5198 8.53556 82.3421 8.53556C85.4449 8.53556 86.8614 10.4479 87.0637 10.6757L88.3456 9.58291C88.1431 9.26423 86.457 6.80542 82.3423 6.80542C77.5082 6.80542 74.7652 10.357 74.7652 14.8649C74.7652 19.5549 77.2609 22.9698 81.9151 22.9698C85.715 22.9698 86.9516 20.8525 87.1532 20.5338L87.1974 22.6056H88.7938H88.7956Z" fill="white"/>
<path fill-rule="evenodd" clip-rule="evenodd" d="M112.258 18.1443C112.258 16.5735 111.448 15.1392 109.424 14.6155C109.874 14.4105 111.673 13.5455 111.673 10.9728C111.689 10.0211 111.343 9.09967 110.706 8.3992C109.537 7.1699 107.693 7.1699 105.737 7.1699H100.296V22.6053H105.58C107.851 22.6053 110.032 22.5371 111.291 20.9661C111.922 20.165 112.263 19.1691 112.258 18.1443ZM109.784 11.3586C109.784 13.772 107.761 13.9546 105.939 13.9546H102.162V8.78613H105.805C107.581 8.78613 109.784 8.78613 109.784 11.3586ZM110.301 18.166C110.301 21.1256 107.513 20.9663 105.377 20.9663H102.162V15.5483H105.895C108.122 15.5483 110.301 15.6843 110.301 18.1666V18.166ZM127.547 22.6053L122.803 15.9811C123.072 15.9128 126.692 15.2981 126.692 11.5643C126.701 10.994 126.596 10.4279 126.383 9.89977C126.17 9.37164 125.855 8.8924 125.455 8.49073C124.24 7.26143 122.487 7.17035 120.553 7.17035H115.09V22.6053H116.979V16.1624H120.734L125.298 22.6053H127.547ZM124.804 11.6543C124.804 14.4092 122.285 14.5685 120.014 14.5685H116.979V8.76331H120.172C121.611 8.76331 123.185 8.78569 124.128 9.74218C124.579 10.1976 124.804 10.7895 124.804 11.6543ZM143.015 22.6051L136.675 7.16968H134.427L128.086 22.6053H130.087L131.729 18.5073H139.306L140.947 22.6053H143.016L143.015 22.6051ZM138.654 16.8686H132.403L135.528 9.08199L138.654 16.8686ZM146.928 22.6058V7.16968H145.039V22.6053H146.928V22.6058ZM162.937 22.6058V7.16968H161.183V19.5318L152.369 7.16968H150.435V22.6053H152.189V10.1293L161.093 22.6056H162.937V22.6058Z" fill="white"/>
</g>
<defs>
<clipPath id="clip0_136_2724">
<rect width="163" height="49" fill="white"/>
</clipPath>
</defs>
</svg>
