<svg width="182" height="31" viewBox="0 0 182 31" fill="none" xmlns="http://www.w3.org/2000/svg">
<g clip-path="url(#clip0_136_2721)">
<path d="M0.683568 30.8324C0.36457 30.8324 0.148106 30.6425 0.0341784 30.2627C0.0113928 30.1957 0 30.0951 0 29.9611C0 29.693 0.125321 29.5142 0.375962 29.4249C1.51524 28.9557 2.35831 28.2854 2.90516 27.4141C3.45202 26.5427 3.8052 25.4703 3.9647 24.1968C4.12419 22.9009 4.20394 21.1582 4.20394 18.9687V7.17189C4.18116 6.61334 4.12419 6.16649 4.03305 5.83135C3.9647 5.47387 3.77102 5.18342 3.45202 4.96C3.13302 4.71424 2.64313 4.59135 1.98235 4.59135H1.77728C1.54942 4.59135 1.37853 4.55784 1.2646 4.49081C1.17346 4.40144 1.11649 4.20036 1.09371 3.88757C1.09371 3.68649 1.15067 3.51892 1.2646 3.38487C1.37853 3.22847 1.52664 3.15027 1.70892 3.15027C3.1672 3.2173 4.52294 3.25081 5.77615 3.25081C7.16607 3.25081 8.59017 3.2173 10.0485 3.15027C10.2535 3.15027 10.4016 3.22847 10.4928 3.38487C10.6067 3.51892 10.6637 3.68649 10.6637 3.88757C10.6409 4.2227 10.5611 4.42378 10.4244 4.49081C10.3105 4.55784 10.094 4.59135 9.77502 4.59135C9.11424 4.59135 8.62435 4.71424 8.30535 4.96C7.98635 5.18342 7.78128 5.47387 7.69014 5.83135C7.62178 6.16649 7.57621 6.61334 7.55343 7.17189V20.1081C7.55343 22.9903 7.02936 25.3474 5.98122 27.1795C4.95587 29.0339 3.23556 30.2515 0.820282 30.8324H0.683568Z" fill="white"/>
<path d="M16.4441 24.8C15.0769 24.8 13.9718 24.4202 13.1288 23.6605C12.2857 22.9009 11.8642 21.9514 11.8642 20.8119C11.8642 19.4043 12.3427 18.3542 13.2997 17.6616C14.2567 16.9467 15.3959 16.4887 16.7175 16.2876C18.0391 16.0641 19.748 15.8966 21.8443 15.7849V13.1373C21.8443 12.0425 21.5595 11.2159 20.9898 10.6573C20.443 10.0764 19.5543 9.78595 18.3239 9.78595C17.6175 9.78595 17.0023 9.9982 16.4783 10.4227C15.9542 10.8472 15.6922 11.4169 15.6922 12.1319C15.6922 12.4894 15.7719 12.791 15.9314 13.0368C16.1137 13.2602 16.296 13.4501 16.4783 13.6065C16.6833 13.7629 16.7859 13.8523 16.7859 13.8746C16.7859 14.0087 16.6378 14.1874 16.3415 14.4108C16.0681 14.6119 15.7263 14.7124 15.3162 14.7124C14.6326 14.7124 14.0858 14.4667 13.6756 13.9751C13.2883 13.4836 13.0946 12.9027 13.0946 12.2324C13.0946 11.0706 13.6187 10.2105 14.6668 9.65189C15.7377 9.09334 17.0251 8.81405 18.529 8.81405C20.3974 8.81405 21.9126 9.16036 23.0747 9.85297C24.2595 10.5456 24.852 11.8303 24.852 13.707V21.5157C24.8748 21.9849 25.0229 22.4317 25.2963 22.8562C25.5697 23.2807 26.014 23.493 26.6292 23.493C26.8115 23.493 26.9369 23.5265 27.0052 23.5935C27.0964 23.6605 27.1419 23.8058 27.1419 24.0292C27.1419 24.2973 26.9255 24.4872 26.4925 24.5989C26.0824 24.733 25.6723 24.8 25.2621 24.8C24.3963 24.8 23.6329 24.5542 22.9722 24.0627C22.3114 23.5712 21.9354 22.9121 21.8443 22.0854C21.3658 22.9568 20.6252 23.627 19.6227 24.0962C18.6429 24.5654 17.5834 24.8 16.4441 24.8ZM17.5378 22.9903C18.3125 22.9903 19.0303 22.8004 19.691 22.4205C20.3518 22.0407 20.8759 21.5269 21.2632 20.8789C21.6506 20.2087 21.8443 19.4714 21.8443 18.667V16.7568C19.4518 16.9355 17.7656 17.3153 16.7859 17.8962C15.8061 18.4771 15.3162 19.4155 15.3162 20.7114C15.3162 22.2306 16.0567 22.9903 17.5378 22.9903Z" fill="white"/>
<path d="M36.5434 24.8C34.2193 24.8 32.3964 24.0739 31.0748 22.6216C29.7533 21.1694 29.0925 19.2256 29.0925 16.7903C29.1381 15.271 29.514 13.9193 30.2204 12.7351C30.9495 11.5287 31.9179 10.5903 33.1255 9.92C34.3332 9.22739 35.6661 8.85874 37.1244 8.81405C38.5827 8.81405 39.8359 9.08216 40.884 9.61838C41.955 10.1546 42.4904 11.0483 42.4904 12.2995C42.4904 12.9921 42.274 13.6065 41.841 14.1427C41.4309 14.6566 40.8727 14.9135 40.1663 14.9135C39.7334 14.9135 39.3574 14.8018 39.0384 14.5784C38.7422 14.355 38.5941 14.165 38.5941 14.0087C38.5941 13.9863 38.6966 13.8858 38.9017 13.707C39.1068 13.5283 39.2891 13.316 39.4486 13.0703C39.6308 12.8022 39.722 12.5005 39.722 12.1654C39.722 11.4728 39.4599 10.9477 38.9359 10.5903C38.4346 10.2328 37.8194 10.0541 37.0902 10.0541C35.3358 10.0541 34.1395 10.6908 33.5015 11.9643C32.8863 13.2155 32.5787 14.7906 32.5787 16.6897C32.5787 18.5665 33.0116 20.1081 33.8775 21.3146C34.7433 22.5211 35.894 23.1243 37.3295 23.1243C38.3093 23.1243 39.1409 22.9232 39.8245 22.5211C40.5309 22.0966 41.1689 21.4598 41.7385 20.6108C41.8069 20.4991 41.9208 20.4432 42.0803 20.4432C42.1942 20.4432 42.3195 20.4768 42.4563 20.5438C42.5702 20.5885 42.6613 20.6667 42.7297 20.7784C42.798 20.8901 42.8322 21.0018 42.8322 21.1135C42.8322 21.1805 42.798 21.2699 42.7297 21.3816C41.9778 22.4317 41.0435 23.2696 39.9271 23.8951C38.8106 24.4984 37.6827 24.8 36.5434 24.8Z" fill="white"/>
<path d="M45.2455 24.4984C45.0632 24.4984 44.9265 24.4314 44.8354 24.2973C44.7442 24.1632 44.6987 24.0069 44.6987 23.8281C44.7215 23.5377 44.7784 23.3701 44.8696 23.3254C44.9835 23.2584 45.1886 23.2249 45.4848 23.2249C46.0772 23.2249 46.4987 23.1243 46.7494 22.9233C47 22.7222 47.1481 22.4876 47.1937 22.2195C47.2393 21.9514 47.2621 21.5269 47.2621 20.946V4.62487C47.2621 4.04396 47.2393 3.61946 47.1937 3.35135C47.1709 3.08324 47.0342 2.84865 46.7836 2.64757C46.5329 2.44649 46.1114 2.34595 45.519 2.34595C45.2455 2.34595 45.0405 2.31243 44.9037 2.24541C44.767 2.15604 44.6987 1.96613 44.6987 1.67568C44.6987 1.54162 44.7442 1.41874 44.8354 1.30703C44.9265 1.17297 45.0632 1.09477 45.2455 1.07243C46.681 0.871351 47.9114 0.5809 48.9368 0.20108C49.2558 0.0893685 49.5178 0.0223421 49.7229 0H49.8254C50.19 0 50.3723 0.212252 50.3723 0.636756V15.9524C51.3749 15.7514 52.1951 15.338 52.8331 14.7124L55.7041 11.8303C55.7497 11.7632 55.8864 11.618 56.1143 11.3946C56.3421 11.1488 56.456 10.9477 56.456 10.7914C56.456 10.4562 55.932 10.3222 54.8838 10.3892C54.6332 10.3445 54.4965 10.1434 54.4737 9.78595C54.4737 9.60721 54.5193 9.45081 54.6104 9.31676C54.7243 9.1827 54.8611 9.11568 55.0206 9.11568C56.0459 9.1827 57.2991 9.21622 58.7802 9.21622C59.0992 9.21622 59.6005 9.19388 60.284 9.14919L61.0701 9.11568C61.2296 9.11568 61.355 9.1827 61.4461 9.31676C61.56 9.45081 61.617 9.60721 61.617 9.78595C61.5942 10.0541 61.5372 10.2216 61.4461 10.2886C61.355 10.3557 61.2182 10.3892 61.036 10.3892C60.1929 10.3892 59.4979 10.5344 58.9511 10.8249C58.4042 11.1153 57.7662 11.6292 57.0371 12.3665L54.1661 15.2487C54.7585 16.0306 56.0117 17.4605 57.9257 19.5384C58.7916 20.4768 59.2359 20.9683 59.2587 21.013C60.079 21.862 60.6828 22.4317 61.0701 22.7222C61.4803 23.0126 61.9816 23.1802 62.574 23.2249C62.6195 23.2249 62.7107 23.236 62.8474 23.2584C63.0069 23.2584 63.1208 23.3031 63.1892 23.3924C63.2803 23.4818 63.3259 23.627 63.3259 23.8281C63.3259 24.275 63.1436 24.4984 62.7791 24.4984C62.574 24.4984 62.2322 24.476 61.7537 24.4314C61.2752 24.409 60.1017 24.3978 58.2333 24.3978C57.5498 23.7052 55.9662 21.9402 53.4825 19.1027C52.7078 18.209 52.3432 17.7845 52.3888 17.8292C51.728 17.1366 51.0559 16.8238 50.3723 16.8908V20.946C50.3723 21.5269 50.3837 21.9514 50.4065 22.2195C50.452 22.4876 50.6001 22.7222 50.8508 22.9233C51.1014 23.1243 51.523 23.2249 52.1154 23.2249H52.3205C52.5255 23.2249 52.6736 23.2584 52.7648 23.3254C52.8559 23.3924 52.9129 23.56 52.9357 23.8281C52.9357 24.0069 52.8787 24.1632 52.7648 24.2973C52.6736 24.4314 52.5483 24.4984 52.3888 24.4984C51.0673 24.4314 49.871 24.3978 48.8001 24.3978C47.7747 24.3978 46.5899 24.4314 45.2455 24.4984Z" fill="white"/>
<path d="M71.3354 24.8C69.6265 24.8 68.1682 24.4425 66.9606 23.7276C65.7757 23.0126 64.8757 22.0407 64.2605 20.8119C63.6453 19.5831 63.3377 18.2202 63.3377 16.7232C63.3377 15.405 63.6453 14.1427 64.2605 12.9362C64.8985 11.7074 65.7985 10.7132 66.9606 9.95352C68.1226 9.19387 69.4556 8.81405 70.9594 8.81405C72.9874 8.81405 74.5482 9.32793 75.6419 10.3557C76.7356 11.3611 77.3622 12.724 77.5217 14.4443C77.5217 15.1816 77.3166 15.6843 76.9065 15.9524C76.4963 16.2205 75.9039 16.3546 75.1292 16.3546H66.8239C66.8239 18.4324 67.2568 20.0858 68.1226 21.3146C69.0113 22.5211 70.3784 23.1243 72.224 23.1243C73.2038 23.1243 74.0355 22.9232 74.7191 22.5211C75.4026 22.0966 76.052 21.3928 76.6672 20.4097C76.7812 20.298 76.8951 20.2422 77.009 20.2422C77.1685 20.2422 77.3052 20.2869 77.4192 20.3762C77.647 20.5103 77.7609 20.7114 77.7609 20.9795C77.7609 21.1135 77.7382 21.2141 77.6926 21.2811C76.9862 22.3982 76.0862 23.2696 74.9925 23.8951C73.9216 24.4984 72.7025 24.8 71.3354 24.8ZM72.3949 15.0811C73.557 15.0811 74.1722 14.6119 74.2406 13.6735C74.2406 12.6458 73.9557 11.7744 73.3861 11.0595C72.8165 10.3445 72.0076 9.98703 70.9594 9.98703C69.7974 9.98703 68.8404 10.445 68.0884 11.3611C67.3365 12.2548 66.915 13.4948 66.8239 15.0811H72.3949Z" fill="white"/>
<path d="M86.4748 24.9676C85.3583 24.9676 84.4013 24.5654 83.6038 23.7611C82.8064 22.9568 82.4076 21.8061 82.4076 20.3092V10.4562L80.4253 10.5232C80.2885 10.5232 80.1746 10.4674 80.0835 10.3557C79.9923 10.2216 79.9468 10.0764 79.9468 9.92C79.9468 9.71892 79.9809 9.55135 80.0493 9.4173C80.1404 9.2609 80.2658 9.17153 80.4253 9.14919C81.2227 8.99279 81.838 8.74703 82.2709 8.41189C82.7266 8.05442 83.057 7.67459 83.2621 7.27243C83.4671 6.84793 83.7178 6.21117 84.014 5.36216C84.1279 5.07171 84.3786 4.92649 84.7659 4.92649C84.9254 4.92649 85.0849 4.97117 85.2444 5.06054C85.4039 5.12757 85.4837 5.23928 85.4837 5.39568L85.2444 9.21622L89.2433 8.98162H89.3116C89.6078 8.98162 89.756 9.19388 89.756 9.61838C89.756 9.86415 89.7104 10.0987 89.6192 10.3222C89.5509 10.5232 89.4597 10.6238 89.3458 10.6238L85.5178 10.5232V20.7114C85.5178 21.4487 85.6659 22.0631 85.9622 22.5546C86.2812 23.0461 86.7938 23.2919 87.5002 23.2919C88.2065 23.2919 88.8331 23.169 89.38 22.9233C89.6762 22.8115 89.8585 22.7557 89.9268 22.7557C90.0863 22.7557 90.2117 22.8227 90.3028 22.9568C90.394 23.0685 90.4851 23.2249 90.5762 23.426C90.599 23.4706 90.6104 23.5265 90.6104 23.5935C90.6104 23.6829 90.5421 23.7834 90.4053 23.8951C89.7446 24.3196 89.118 24.5989 88.5255 24.733C87.9559 24.8894 87.2723 24.9676 86.4748 24.9676Z" fill="white"/>
<path d="M101.738 24.4984C101.533 24.4984 101.373 24.4314 101.259 24.2973C101.168 24.1409 101.122 23.9622 101.122 23.7611C101.145 23.426 101.214 23.2249 101.327 23.1578C101.441 23.0908 101.658 23.0573 101.977 23.0573C102.638 23.0573 103.128 22.9456 103.447 22.7222C103.766 22.4764 103.959 22.1859 104.028 21.8508C104.119 21.4933 104.176 21.0353 104.198 20.4768V7.20541C104.176 6.62451 104.119 6.16649 104.028 5.83135C103.959 5.49622 103.766 5.20577 103.447 4.96C103.128 4.71424 102.638 4.59135 101.977 4.59135H101.772C101.544 4.59135 101.384 4.55784 101.293 4.49081C101.202 4.40144 101.145 4.20036 101.122 3.88757C101.122 3.68649 101.168 3.51892 101.259 3.38487C101.373 3.22847 101.533 3.15027 101.738 3.15027C103.219 3.2173 104.574 3.25081 105.805 3.25081H111.684C113.438 3.27315 114.896 3.55243 116.058 4.08865C117.243 4.60252 118.109 5.27279 118.656 6.09946C119.203 6.90378 119.476 7.77514 119.476 8.71352C119.476 9.94234 118.975 11.0706 117.972 12.0984C116.993 13.1261 115.648 13.8634 113.939 14.3103L114.52 15.2151C115.477 16.7344 116.343 18.0414 117.118 19.1362C117.893 20.2087 118.736 21.2141 119.647 22.1524C120.285 22.6663 120.969 22.9679 121.698 23.0573C121.743 23.0573 121.846 23.0685 122.005 23.0908C122.165 23.0908 122.29 23.1467 122.381 23.2584C122.495 23.3701 122.552 23.5377 122.552 23.7611C122.552 23.9622 122.495 24.1409 122.381 24.2973C122.29 24.4314 122.142 24.4984 121.937 24.4984L121.048 24.4649C120.046 24.4202 119.317 24.3978 118.861 24.3978C117.95 24.2191 117.163 23.9063 116.503 23.4595C115.865 22.9903 115.227 22.3312 114.589 21.4822C113.928 20.6332 113.005 19.2479 111.82 17.3265L111.205 16.3546C110.863 15.8407 110.533 15.4944 110.214 15.3157C109.895 15.1146 109.348 15.0141 108.573 15.0141H107.582V20.4768C107.605 21.0353 107.65 21.4933 107.719 21.8508C107.81 22.1859 108.015 22.4764 108.334 22.7222C108.653 22.9456 109.143 23.0573 109.804 23.0573H110.009C110.214 23.0573 110.362 23.102 110.453 23.1914C110.567 23.2584 110.635 23.4483 110.658 23.7611C110.658 23.9622 110.601 24.1409 110.487 24.2973C110.396 24.4314 110.248 24.4984 110.043 24.4984C108.585 24.4314 107.161 24.3978 105.771 24.3978C104.563 24.3978 103.219 24.4314 101.738 24.4984ZM110.59 13.707C113.985 13.707 115.682 12.1431 115.682 9.01514C115.682 7.74162 115.238 6.66919 114.349 5.79784C113.461 4.92649 112.003 4.49081 109.975 4.49081C109.314 4.49081 108.813 4.56901 108.471 4.72541C108.129 4.8818 107.89 5.14991 107.753 5.52973C107.639 5.90955 107.582 6.49045 107.582 7.27243V13.707H110.59Z" fill="white"/>
<path d="M124.258 24.4984C124.098 24.4984 123.961 24.4314 123.848 24.2973C123.756 24.1632 123.711 24.0069 123.711 23.8281C123.734 23.5377 123.802 23.3701 123.916 23.3254C124.03 23.2584 124.235 23.2249 124.531 23.2249C125.124 23.2249 125.545 23.1243 125.796 22.9233C126.046 22.7222 126.183 22.4876 126.206 22.2195C126.251 21.9514 126.274 21.5269 126.274 20.946V13.2714C126.274 12.6905 126.251 12.2659 126.206 11.9978C126.183 11.7297 126.046 11.4951 125.796 11.2941C125.545 11.093 125.124 10.9924 124.531 10.9924C124.258 10.9924 124.053 10.9589 123.916 10.8919C123.779 10.8025 123.711 10.6126 123.711 10.3222C123.711 10.1881 123.756 10.0652 123.848 9.95352C123.939 9.81946 124.075 9.74126 124.258 9.71892C125.693 9.51784 126.924 9.22739 127.949 8.84757C128.268 8.73586 128.53 8.66883 128.735 8.64649H128.838C129.202 8.64649 129.384 8.85874 129.384 9.28325V20.946C129.384 21.5269 129.407 21.9514 129.453 22.2195C129.498 22.4876 129.646 22.7222 129.897 22.9233C130.148 23.1243 130.569 23.2249 131.162 23.2249H131.367C131.549 23.2249 131.686 23.2584 131.777 23.3254C131.868 23.3924 131.925 23.56 131.948 23.8281C131.948 24.0069 131.902 24.1632 131.811 24.2973C131.72 24.4314 131.583 24.4984 131.401 24.4984C130.079 24.4314 128.883 24.3978 127.812 24.3978C126.787 24.3978 125.602 24.4314 124.258 24.4984ZM127.641 4.92649C127.003 4.92649 126.468 4.73658 126.035 4.35676C125.602 3.95459 125.386 3.46306 125.386 2.88216C125.386 2.36829 125.648 1.91027 126.172 1.50811C126.696 1.10595 127.288 0.904866 127.949 0.904866C128.519 0.904866 128.986 1.10595 129.35 1.50811C129.715 1.88793 129.897 2.37946 129.897 2.9827C129.897 3.51892 129.681 3.97694 129.248 4.35676C128.815 4.73658 128.279 4.92649 127.641 4.92649Z" fill="white"/>
<path d="M141.041 24.733C140.449 23.4818 139.617 21.4822 138.546 18.7341C138.455 18.5106 138.136 17.7063 137.589 16.3211C137.065 14.9359 136.564 13.7741 136.086 12.8357C135.698 11.9643 135.334 11.3723 134.992 11.0595C134.65 10.7243 134.149 10.5121 133.488 10.4227C133.42 10.4004 133.294 10.378 133.112 10.3557C132.93 10.3333 132.816 10.2775 132.77 10.1881C132.725 10.0987 132.702 9.94234 132.702 9.71892C132.702 9.45081 132.77 9.28325 132.907 9.21622C133.066 9.14919 133.249 9.11568 133.454 9.11568C133.682 9.09334 133.83 9.08216 133.898 9.08216C135.288 9.01514 136.382 9.21622 137.179 9.68541C137.977 10.1323 138.638 10.9254 139.162 12.0649C139.184 12.1096 139.629 13.182 140.495 15.2822C141.543 17.8962 142.295 19.6724 142.75 20.6108H142.853L146.237 11.8303C146.35 11.4505 146.407 11.1823 146.407 11.0259C146.407 10.7802 146.294 10.6126 146.066 10.5232C145.838 10.4339 145.462 10.3892 144.938 10.3892H144.733C144.55 10.3892 144.414 10.3557 144.323 10.2886C144.254 10.2216 144.209 10.0541 144.186 9.78595C144.186 9.62955 144.22 9.48433 144.288 9.35027C144.38 9.19388 144.505 9.11568 144.664 9.11568C145.963 9.1827 147.068 9.21622 147.98 9.21622C148.344 9.21622 149.051 9.19388 150.099 9.14919L150.816 9.11568C150.976 9.11568 151.101 9.19388 151.192 9.35027C151.284 9.48433 151.329 9.62955 151.329 9.78595C151.306 10.0541 151.249 10.2216 151.158 10.2886C151.067 10.3557 150.93 10.3892 150.748 10.3892C149.905 10.3892 149.256 10.5232 148.8 10.7914C148.344 11.0595 147.957 11.5845 147.638 12.3665C147.114 13.6623 146.134 16.0418 144.699 19.5049C143.263 22.9679 142.523 24.7106 142.477 24.733H141.041Z" fill="white"/>
<path d="M159.652 24.8C157.943 24.8 156.485 24.4425 155.277 23.7276C154.092 23.0126 153.192 22.0407 152.577 20.8119C151.962 19.5831 151.654 18.2202 151.654 16.7232C151.654 15.405 151.962 14.1427 152.577 12.9362C153.215 11.7074 154.115 10.7132 155.277 9.95352C156.439 9.19387 157.772 8.81405 159.276 8.81405C161.304 8.81405 162.865 9.32793 163.958 10.3557C165.052 11.3611 165.679 12.724 165.838 14.4443C165.838 15.1816 165.633 15.6843 165.223 15.9524C164.813 16.2205 164.22 16.3546 163.446 16.3546H155.14C155.14 18.4324 155.573 20.0858 156.439 21.3146C157.328 22.5211 158.695 23.1243 160.54 23.1243C161.52 23.1243 162.352 22.9232 163.036 22.5211C163.719 22.0966 164.368 21.3928 164.984 20.4097C165.098 20.298 165.212 20.2422 165.325 20.2422C165.485 20.2422 165.622 20.2869 165.736 20.3762C165.963 20.5103 166.077 20.7114 166.077 20.9795C166.077 21.1135 166.055 21.2141 166.009 21.2811C165.303 22.3982 164.403 23.2696 163.309 23.8951C162.238 24.4984 161.019 24.8 159.652 24.8ZM160.711 15.0811C161.873 15.0811 162.489 14.6119 162.557 13.6735C162.557 12.6458 162.272 11.7744 161.703 11.0595C161.133 10.3445 160.324 9.98703 159.276 9.98703C158.114 9.98703 157.157 10.445 156.405 11.3611C155.653 12.2548 155.231 13.4948 155.14 15.0811H160.711Z" fill="white"/>
<path d="M169.083 24.4984C168.924 24.4984 168.787 24.4314 168.673 24.2973C168.582 24.1632 168.537 24.0069 168.537 23.8281C168.559 23.5377 168.628 23.3701 168.742 23.3254C168.856 23.2584 169.061 23.2249 169.357 23.2249C169.949 23.2249 170.371 23.1243 170.622 22.9233C170.872 22.7222 171.009 22.4876 171.032 22.2195C171.077 21.9514 171.1 21.5269 171.1 20.946V13.2714C171.1 12.6905 171.077 12.2659 171.032 11.9978C171.009 11.7297 170.872 11.4951 170.622 11.2941C170.371 11.093 169.949 10.9924 169.357 10.9924C169.083 10.9924 168.878 10.9589 168.742 10.8919C168.605 10.8025 168.537 10.6126 168.537 10.3222C168.537 10.1881 168.582 10.0652 168.673 9.95352C168.764 9.81946 168.901 9.74126 169.083 9.71892C170.565 9.4955 171.784 9.20505 172.741 8.84757C173.128 8.73586 173.39 8.66883 173.527 8.64649H173.629C173.994 8.64649 174.176 8.85874 174.176 9.28325V11.3611H174.279C175.076 10.5791 175.885 9.96469 176.705 9.51784C177.526 9.04865 178.266 8.81405 178.927 8.81405C179.679 8.81405 180.271 9.09334 180.704 9.65189C181.16 10.1881 181.388 10.8137 181.388 11.5287C181.388 12.1542 181.194 12.7128 180.807 13.2043C180.419 13.6959 179.884 13.9416 179.2 13.9416C178.881 13.9416 178.596 13.8746 178.346 13.7405C178.118 13.6065 177.993 13.4948 177.97 13.4054C177.993 13.3607 178.107 13.2267 178.312 13.0032C178.517 12.7575 178.619 12.4782 178.619 12.1654C178.619 11.7632 178.505 11.4393 178.277 11.1935C178.072 10.9478 177.788 10.8249 177.423 10.8249C177.036 10.8249 176.546 11.0148 175.953 11.3946C175.361 11.7521 174.78 12.2101 174.21 12.7687V20.946C174.21 21.5269 174.233 21.9514 174.279 22.2195C174.324 22.4876 174.472 22.7222 174.723 22.9233C174.974 23.1243 175.395 23.2249 175.988 23.2249H176.193C176.375 23.2249 176.512 23.2584 176.603 23.3254C176.694 23.3924 176.751 23.56 176.774 23.8281C176.774 24.0069 176.728 24.1632 176.637 24.2973C176.546 24.4314 176.409 24.4984 176.227 24.4984C174.905 24.4314 173.709 24.3978 172.638 24.3978C171.613 24.3978 170.428 24.4314 169.083 24.4984Z" fill="white"/>
</g>
<defs>
<clipPath id="clip0_136_2721">
<rect width="182" height="31" fill="white"/>
</clipPath>
</defs>
</svg>
