<svg width="24" height="24" viewBox="0 0 24 24" fill="none" xmlns="http://www.w3.org/2000/svg">
<g clip-path="url(#clip0_186_2063)">
<path d="M7.918 22C5.36847 22 2.99659 21.2469 1 19.9597C1.35278 20.0025 1.71307 20.0227 2.07586 20.0227C4.19004 20.0227 6.13659 19.2972 7.68031 18.0781C5.70374 18.0403 4.03742 16.728 3.46446 14.9219C3.73968 14.9748 4.0224 15.005 4.31263 15.005C4.72546 15.005 5.12328 14.9496 5.50358 14.8438C3.43944 14.4282 1.8832 12.5894 1.8832 10.3904C1.8832 10.3703 1.8832 10.3526 1.8832 10.3325C2.49119 10.6725 3.18674 10.8791 3.92733 10.9018C2.71637 10.0831 1.92073 8.6927 1.92073 7.11587C1.92073 6.28463 2.14341 5.50378 2.53122 4.83123C4.75799 7.58186 8.08313 9.39043 11.8336 9.57935C11.7561 9.24685 11.716 8.89924 11.716 8.54408C11.716 6.03526 13.7376 4 16.2321 4C17.5306 4 18.7041 4.55164 19.5272 5.43577C20.5556 5.23174 21.5213 4.8539 22.392 4.33249C22.0542 5.39295 21.3387 6.28463 20.4079 6.84635C21.3212 6.73552 22.1919 6.4937 23 6.13098C22.397 7.04282 21.6289 7.84131 20.7482 8.48363C20.7582 8.67758 20.7607 8.87406 20.7607 9.07053C20.7607 15.0756 16.2221 22 7.918 22Z" fill="white"/>
</g>
<defs>
<clipPath id="clip0_186_2063">
<rect width="24" height="24" fill="white"/>
</clipPath>
</defs>
</svg>
