<svg width="229" height="32" viewBox="0 0 229 32" fill="none" xmlns="http://www.w3.org/2000/svg">
<g clip-path="url(#clip0_260_1955)">
<path d="M12.5798 32C27.6754 32 35.9329 19.6899 35.9329 9.01427C35.9329 8.66499 35.9238 8.3157 35.9101 7.97089C37.5116 6.82899 38.9037 5.40946 40.0047 3.78841C38.5352 4.43325 36.952 4.86314 35.2914 5.06017C36.9838 4.06157 38.285 2.47635 38.8992 0.5911C37.3114 1.51805 35.5552 2.18976 33.6899 2.55248C32.1931 0.980688 30.0593 0 27.6981 0C23.1667 0 19.4906 3.61825 19.4906 8.07837C19.4906 8.71425 19.5634 9.32774 19.7045 9.91884C12.8801 9.58298 6.83368 6.36776 2.78455 1.47775C2.07936 2.66891 1.67445 4.05709 1.67445 5.53932C1.67445 8.34257 3.12576 10.8144 5.32777 12.2653C3.98109 12.225 2.7163 11.8623 1.61075 11.2533C1.61075 11.2891 1.61075 11.3205 1.61075 11.3563C1.61075 15.2701 4.4406 18.5346 8.19401 19.2734C7.50247 19.457 6.77909 19.56 6.0284 19.56C5.50065 19.56 4.98655 19.5063 4.48609 19.4123C5.5325 22.623 8.56252 24.9561 12.1522 25.0232C9.3405 27.1906 5.80547 28.4803 1.96107 28.4803C1.29683 28.4803 0.646238 28.4444 0.00474548 28.3683C3.63532 30.6611 7.94833 31.9955 12.5844 31.9955" fill="#1D9BF0"/>
</g>
<path d="M55.6072 9.18C57.0872 9.18 58.3739 9.46 59.4672 10.02C60.5605 10.58 61.4005 11.3667 61.9872 12.38C62.5739 13.38 62.8672 14.54 62.8672 15.86C62.8672 16.9133 62.6939 17.9267 62.3472 18.9C62.0005 19.86 61.4939 20.64 60.8272 21.24C60.1739 21.84 59.4072 22.14 58.5272 22.14C57.8605 22.14 57.3472 21.9733 56.9872 21.64C56.6272 21.3067 56.4205 20.8533 56.3672 20.28C55.9539 20.8533 55.4272 21.3067 54.7872 21.64C54.1605 21.9733 53.4939 22.14 52.7872 22.14C51.7739 22.14 50.9739 21.8333 50.3872 21.22C49.8139 20.5933 49.5272 19.7533 49.5272 18.7C49.5272 17.7 49.7339 16.7667 50.1472 15.9C50.5739 15.0333 51.1605 14.34 51.9072 13.82C52.6539 13.2867 53.5005 13.02 54.4472 13.02C55.7139 13.02 56.5672 13.5 57.0072 14.46L57.2272 13.22H58.8072L57.8072 19C57.7672 19.2533 57.7472 19.4867 57.7472 19.7C57.7472 20.5 58.1005 20.9 58.8072 20.9C59.3405 20.9 59.8005 20.6467 60.1872 20.14C60.5872 19.6333 60.8872 19 61.0872 18.24C61.2872 17.4667 61.3872 16.7067 61.3872 15.96C61.3872 14.2133 60.8605 12.86 59.8072 11.9C58.7672 10.94 57.2939 10.46 55.3872 10.46C53.8005 10.46 52.3672 10.8467 51.0872 11.62C49.8205 12.38 48.8272 13.4267 48.1072 14.76C47.3872 16.0933 47.0272 17.5667 47.0272 19.18C47.0139 20.94 47.5405 22.2933 48.6072 23.24C49.6739 24.2 51.1539 24.68 53.0472 24.68C54.3005 24.68 55.4072 24.4533 56.3672 24L56.6072 25.24C55.4205 25.7333 54.1139 25.98 52.6872 25.98C51.2605 25.98 50.0005 25.7067 48.9072 25.16C47.8272 24.6267 46.9872 23.8533 46.3872 22.84C45.8005 21.84 45.5072 20.6733 45.5072 19.34C45.5072 17.46 45.9405 15.7467 46.8072 14.2C47.6739 12.64 48.8739 11.4133 50.4072 10.52C51.9539 9.62667 53.6872 9.18 55.6072 9.18ZM53.3272 20.72C53.9272 20.72 54.4805 20.5467 54.9872 20.2C55.4939 19.84 55.8939 19.36 56.1872 18.76C56.4805 18.1467 56.6272 17.48 56.6272 16.76C56.6272 16.0667 56.4339 15.5067 56.0472 15.08C55.6739 14.64 55.1405 14.42 54.4472 14.42C53.8072 14.42 53.2405 14.6133 52.7472 15C52.2672 15.3733 51.8939 15.8733 51.6272 16.5C51.3605 17.1133 51.2272 17.7533 51.2272 18.42C51.2272 19.1267 51.4072 19.6867 51.7672 20.1C52.1272 20.5133 52.6472 20.72 53.3272 20.72ZM71.5011 10.84C72.3278 10.84 73.0744 11.02 73.7411 11.38C74.4078 11.7267 74.9278 12.2533 75.3011 12.96C75.6878 13.6667 75.8811 14.5267 75.8811 15.54V22H74.0811V15.8C74.0811 14.7067 73.8078 13.8733 73.2611 13.3C72.7144 12.7133 71.9678 12.42 71.0211 12.42C70.0611 12.42 69.2944 12.72 68.7211 13.32C68.1611 13.92 67.8811 14.7933 67.8811 15.94V22H66.0611V7.2H67.8811V12.6C68.2411 12.04 68.7344 11.6067 69.3611 11.3C70.0011 10.9933 70.7144 10.84 71.5011 10.84ZM78.3741 16.48C78.3741 15.36 78.6007 14.38 79.0541 13.54C79.5074 12.6867 80.1274 12.0267 80.9141 11.56C81.7141 11.0933 82.6007 10.86 83.5741 10.86C84.5341 10.86 85.3674 11.0667 86.0741 11.48C86.7807 11.8933 87.3074 12.4133 87.6541 13.04V11.04H89.4941V22H87.6541V19.96C87.2941 20.6 86.7541 21.1333 86.0341 21.56C85.3274 21.9733 84.5007 22.18 83.5541 22.18C82.5807 22.18 81.7007 21.94 80.9141 21.46C80.1274 20.98 79.5074 20.3067 79.0541 19.44C78.6007 18.5733 78.3741 17.5867 78.3741 16.48ZM87.6541 16.5C87.6541 15.6733 87.4874 14.9533 87.1541 14.34C86.8207 13.7267 86.3674 13.26 85.7941 12.94C85.2341 12.6067 84.6141 12.44 83.9341 12.44C83.2541 12.44 82.6341 12.6 82.0741 12.92C81.5141 13.24 81.0674 13.7067 80.7341 14.32C80.4007 14.9333 80.2341 15.6533 80.2341 16.48C80.2341 17.32 80.4007 18.0533 80.7341 18.68C81.0674 19.2933 81.5141 19.7667 82.0741 20.1C82.6341 20.42 83.2541 20.58 83.9341 20.58C84.6141 20.58 85.2341 20.42 85.7941 20.1C86.3674 19.7667 86.8207 19.2933 87.1541 18.68C87.4874 18.0533 87.6541 17.3267 87.6541 16.5ZM96.6497 22.18C95.8097 22.18 95.0563 22.04 94.3897 21.76C93.723 21.4667 93.1963 21.0667 92.8097 20.56C92.423 20.04 92.2097 19.4467 92.1697 18.78H94.0497C94.103 19.3267 94.3563 19.7733 94.8097 20.12C95.2763 20.4667 95.883 20.64 96.6297 20.64C97.323 20.64 97.8697 20.4867 98.2697 20.18C98.6697 19.8733 98.8697 19.4867 98.8697 19.02C98.8697 18.54 98.6564 18.1867 98.2297 17.96C97.803 17.72 97.143 17.4867 96.2497 17.26C95.4363 17.0467 94.7697 16.8333 94.2497 16.62C93.743 16.3933 93.303 16.0667 92.9297 15.64C92.5697 15.2 92.3897 14.6267 92.3897 13.92C92.3897 13.36 92.5563 12.8467 92.8897 12.38C93.223 11.9133 93.6963 11.5467 94.3097 11.28C94.923 11 95.623 10.86 96.4097 10.86C97.623 10.86 98.603 11.1667 99.3497 11.78C100.096 12.3933 100.496 13.2333 100.55 14.3H98.7297C98.6897 13.7267 98.4563 13.2667 98.0297 12.92C97.6163 12.5733 97.0563 12.4 96.3497 12.4C95.6963 12.4 95.1763 12.54 94.7897 12.82C94.403 13.1 94.2097 13.4667 94.2097 13.92C94.2097 14.28 94.323 14.58 94.5497 14.82C94.7897 15.0467 95.083 15.2333 95.4297 15.38C95.7897 15.5133 96.283 15.6667 96.9097 15.84C97.6963 16.0533 98.3364 16.2667 98.8297 16.48C99.323 16.68 99.743 16.9867 100.09 17.4C100.45 17.8133 100.636 18.3533 100.65 19.02C100.65 19.62 100.483 20.16 100.15 20.64C99.8164 21.12 99.343 21.5 98.7297 21.78C98.1297 22.0467 97.4363 22.18 96.6497 22.18ZM108.859 10.84C109.686 10.84 110.432 11.02 111.099 11.38C111.766 11.7267 112.286 12.2533 112.659 12.96C113.046 13.6667 113.239 14.5267 113.239 15.54V22H111.439V15.8C111.439 14.7067 111.166 13.8733 110.619 13.3C110.072 12.7133 109.326 12.42 108.379 12.42C107.419 12.42 106.652 12.72 106.079 13.32C105.519 13.92 105.239 14.7933 105.239 15.94V22H103.419V7.2H105.239V12.6C105.599 12.04 106.092 11.6067 106.719 11.3C107.359 10.9933 108.072 10.84 108.859 10.84ZM120.932 10.86C121.879 10.86 122.705 11.0667 123.412 11.48C124.132 11.8933 124.665 12.4133 125.012 13.04V11.04H126.852V22.24C126.852 23.24 126.639 24.1267 126.212 24.9C125.785 25.6867 125.172 26.3 124.372 26.74C123.585 27.18 122.665 27.4 121.612 27.4C120.172 27.4 118.972 27.06 118.012 26.38C117.052 25.7 116.485 24.7733 116.312 23.6H118.112C118.312 24.2667 118.725 24.8 119.352 25.2C119.979 25.6133 120.732 25.82 121.612 25.82C122.612 25.82 123.425 25.5067 124.052 24.88C124.692 24.2533 125.012 23.3733 125.012 22.24V19.94C124.652 20.58 124.119 21.1133 123.412 21.54C122.705 21.9667 121.879 22.18 120.932 22.18C119.959 22.18 119.072 21.94 118.272 21.46C117.485 20.98 116.865 20.3067 116.412 19.44C115.959 18.5733 115.732 17.5867 115.732 16.48C115.732 15.36 115.959 14.38 116.412 13.54C116.865 12.6867 117.485 12.0267 118.272 11.56C119.072 11.0933 119.959 10.86 120.932 10.86ZM125.012 16.5C125.012 15.6733 124.845 14.9533 124.512 14.34C124.179 13.7267 123.725 13.26 123.152 12.94C122.592 12.6067 121.972 12.44 121.292 12.44C120.612 12.44 119.992 12.6 119.432 12.92C118.872 13.24 118.425 13.7067 118.092 14.32C117.759 14.9333 117.592 15.6533 117.592 16.48C117.592 17.32 117.759 18.0533 118.092 18.68C118.425 19.2933 118.872 19.7667 119.432 20.1C119.992 20.42 120.612 20.58 121.292 20.58C121.972 20.58 122.592 20.42 123.152 20.1C123.725 19.7667 124.179 19.2933 124.512 18.68C124.845 18.0533 125.012 17.3267 125.012 16.5ZM131.947 12.82C132.267 12.1933 132.721 11.7067 133.307 11.36C133.907 11.0133 134.634 10.84 135.487 10.84V12.72H135.007C132.967 12.72 131.947 13.8267 131.947 16.04V22H130.127V11.04H131.947V12.82ZM147.788 16.1C147.788 16.4467 147.768 16.8133 147.728 17.2H138.968C139.035 18.28 139.402 19.1267 140.068 19.74C140.748 20.34 141.568 20.64 142.528 20.64C143.315 20.64 143.968 20.46 144.488 20.1C145.022 19.7267 145.395 19.2333 145.608 18.62H147.568C147.275 19.6733 146.688 20.5333 145.808 21.2C144.928 21.8533 143.835 22.18 142.528 22.18C141.488 22.18 140.555 21.9467 139.728 21.48C138.915 21.0133 138.275 20.3533 137.808 19.5C137.342 18.6333 137.108 17.6333 137.108 16.5C137.108 15.3667 137.335 14.3733 137.788 13.52C138.242 12.6667 138.875 12.0133 139.688 11.56C140.515 11.0933 141.462 10.86 142.528 10.86C143.568 10.86 144.488 11.0867 145.288 11.54C146.088 11.9933 146.702 12.62 147.128 13.42C147.568 14.2067 147.788 15.1 147.788 16.1ZM145.908 15.72C145.908 15.0267 145.755 14.4333 145.448 13.94C145.142 13.4333 144.722 13.0533 144.188 12.8C143.668 12.5333 143.088 12.4 142.448 12.4C141.528 12.4 140.742 12.6933 140.088 13.28C139.448 13.8667 139.082 14.68 138.988 15.72H145.908ZM160.391 16.1C160.391 16.4467 160.371 16.8133 160.331 17.2H151.571C151.637 18.28 152.004 19.1267 152.671 19.74C153.351 20.34 154.171 20.64 155.131 20.64C155.917 20.64 156.571 20.46 157.091 20.1C157.624 19.7267 157.997 19.2333 158.211 18.62H160.171C159.877 19.6733 159.291 20.5333 158.411 21.2C157.531 21.8533 156.437 22.18 155.131 22.18C154.091 22.18 153.157 21.9467 152.331 21.48C151.517 21.0133 150.877 20.3533 150.411 19.5C149.944 18.6333 149.711 17.6333 149.711 16.5C149.711 15.3667 149.937 14.3733 150.391 13.52C150.844 12.6667 151.477 12.0133 152.291 11.56C153.117 11.0933 154.064 10.86 155.131 10.86C156.171 10.86 157.091 11.0867 157.891 11.54C158.691 11.9933 159.304 12.62 159.731 13.42C160.171 14.2067 160.391 15.1 160.391 16.1ZM158.511 15.72C158.511 15.0267 158.357 14.4333 158.051 13.94C157.744 13.4333 157.324 13.0533 156.791 12.8C156.271 12.5333 155.691 12.4 155.051 12.4C154.131 12.4 153.344 12.6933 152.691 13.28C152.051 13.8667 151.684 14.68 151.591 15.72H158.511ZM168.333 10.84C169.666 10.84 170.746 11.2467 171.573 12.06C172.4 12.86 172.813 14.02 172.813 15.54V22H171.013V15.8C171.013 14.7067 170.74 13.8733 170.193 13.3C169.646 12.7133 168.9 12.42 167.953 12.42C166.993 12.42 166.226 12.72 165.653 13.32C165.093 13.92 164.813 14.7933 164.813 15.94V22H162.993V11.04H164.813V12.6C165.173 12.04 165.66 11.6067 166.273 11.3C166.9 10.9933 167.586 10.84 168.333 10.84ZM179.866 22.18C179.026 22.18 178.273 22.04 177.606 21.76C176.939 21.4667 176.413 21.0667 176.026 20.56C175.639 20.04 175.426 19.4467 175.386 18.78H177.266C177.319 19.3267 177.573 19.7733 178.026 20.12C178.493 20.4667 179.099 20.64 179.846 20.64C180.539 20.64 181.086 20.4867 181.486 20.18C181.886 19.8733 182.086 19.4867 182.086 19.02C182.086 18.54 181.873 18.1867 181.446 17.96C181.019 17.72 180.359 17.4867 179.466 17.26C178.653 17.0467 177.986 16.8333 177.466 16.62C176.959 16.3933 176.519 16.0667 176.146 15.64C175.786 15.2 175.606 14.6267 175.606 13.92C175.606 13.36 175.773 12.8467 176.106 12.38C176.439 11.9133 176.913 11.5467 177.526 11.28C178.139 11 178.839 10.86 179.626 10.86C180.839 10.86 181.819 11.1667 182.566 11.78C183.313 12.3933 183.713 13.2333 183.766 14.3H181.946C181.906 13.7267 181.673 13.2667 181.246 12.92C180.833 12.5733 180.273 12.4 179.566 12.4C178.913 12.4 178.393 12.54 178.006 12.82C177.619 13.1 177.426 13.4667 177.426 13.92C177.426 14.28 177.539 14.58 177.766 14.82C178.006 15.0467 178.299 15.2333 178.646 15.38C179.006 15.5133 179.499 15.6667 180.126 15.84C180.913 16.0533 181.553 16.2667 182.046 16.48C182.539 16.68 182.959 16.9867 183.306 17.4C183.666 17.8133 183.853 18.3533 183.866 19.02C183.866 19.62 183.699 20.16 183.366 20.64C183.033 21.12 182.559 21.5 181.946 21.78C181.346 22.0467 180.653 22.18 179.866 22.18ZM201.235 11.04L197.815 22H195.935L193.295 13.3L190.655 22H188.775L185.335 11.04H187.195L189.715 20.24L192.435 11.04H194.295L196.955 20.26L199.435 11.04H201.235ZM202.562 16.48C202.562 15.36 202.788 14.38 203.242 13.54C203.695 12.6867 204.315 12.0267 205.102 11.56C205.902 11.0933 206.788 10.86 207.762 10.86C208.722 10.86 209.555 11.0667 210.262 11.48C210.968 11.8933 211.495 12.4133 211.842 13.04V11.04H213.682V22H211.842V19.96C211.482 20.6 210.942 21.1333 210.222 21.56C209.515 21.9733 208.688 22.18 207.742 22.18C206.768 22.18 205.888 21.94 205.102 21.46C204.315 20.98 203.695 20.3067 203.242 19.44C202.788 18.5733 202.562 17.5867 202.562 16.48ZM211.842 16.5C211.842 15.6733 211.675 14.9533 211.342 14.34C211.008 13.7267 210.555 13.26 209.982 12.94C209.422 12.6067 208.802 12.44 208.122 12.44C207.442 12.44 206.822 12.6 206.262 12.92C205.702 13.24 205.255 13.7067 204.922 14.32C204.588 14.9333 204.422 15.6533 204.422 16.48C204.422 17.32 204.588 18.0533 204.922 18.68C205.255 19.2933 205.702 19.7667 206.262 20.1C206.822 20.42 207.442 20.58 208.122 20.58C208.802 20.58 209.422 20.42 209.982 20.1C210.555 19.7667 211.008 19.2933 211.342 18.68C211.675 18.0533 211.842 17.3267 211.842 16.5ZM218.777 13.06C219.137 12.4333 219.671 11.9133 220.377 11.5C221.097 11.0733 221.931 10.86 222.877 10.86C223.851 10.86 224.731 11.0933 225.517 11.56C226.317 12.0267 226.944 12.6867 227.397 13.54C227.851 14.38 228.077 15.36 228.077 16.48C228.077 17.5867 227.851 18.5733 227.397 19.44C226.944 20.3067 226.317 20.98 225.517 21.46C224.731 21.94 223.851 22.18 222.877 22.18C221.944 22.18 221.117 21.9733 220.397 21.56C219.691 21.1333 219.151 20.6067 218.777 19.98V27.2H216.957V11.04H218.777V13.06ZM226.217 16.48C226.217 15.6533 226.051 14.9333 225.717 14.32C225.384 13.7067 224.931 13.24 224.357 12.92C223.797 12.6 223.177 12.44 222.497 12.44C221.831 12.44 221.211 12.6067 220.637 12.94C220.077 13.26 219.624 13.7333 219.277 14.36C218.944 14.9733 218.777 15.6867 218.777 16.5C218.777 17.3267 218.944 18.0533 219.277 18.68C219.624 19.2933 220.077 19.7667 220.637 20.1C221.211 20.42 221.831 20.58 222.497 20.58C223.177 20.58 223.797 20.42 224.357 20.1C224.931 19.7667 225.384 19.2933 225.717 18.68C226.051 18.0533 226.217 17.32 226.217 16.48Z" fill="white"/>
<defs>
<clipPath id="clip0_260_1955">
<rect width="40" height="32" fill="white"/>
</clipPath>
</defs>
</svg>
