<svg width="171" height="24" viewBox="0 0 171 24" fill="none" xmlns="http://www.w3.org/2000/svg">
<g clip-path="url(#clip0_176_1102)">
<path d="M11.8126 2.20222C11.8126 2.20222 6.37807 2.24892 6.03717 8.67407C6.03717 8.67407 3.14945 8.87423 1.15465 11.1027C1.15465 11.1027 0 9.94397 0 7.01496C0 3.7946 3.02628 2.75155 5.00568 3.58332C5.00568 3.58332 4.73077 1.33485 6.71017 0.396325C8.75775 -0.571116 10.3831 0.309589 11.8126 2.20222Z" fill="white"/>
<path d="M10.2511 14.8012H14.3859L14.3661 18.5286C14.3859 23.2324 9.83985 23.933 9.83985 23.933C4.50867 24.618 4.80118 19.8275 4.80118 19.8275C1.16128 20.7949 -1.12383 16.4981 0.578455 13.409C2.28074 10.3198 5.96023 10.0352 5.96023 10.0352V17.539C5.96023 17.539 5.89425 19.8319 8.15956 19.6851C10.3589 19.545 10.2357 17.5857 10.2357 17.5857L10.2511 14.8012Z" fill="white"/>
<path d="M10.1895 6.49677V9.89505H14.3683V7.32187C14.3683 7.32187 14.4628 5.20018 16.2597 5.17571C18.1401 5.14902 18.3161 6.95491 18.3117 7.32187V10.6267C19.3305 10.3656 20.4017 10.403 21.4003 10.7346C22.3988 11.0662 23.2834 11.6783 23.9508 12.4994C23.9508 12.4994 25.0768 10.3421 24.1201 8.64293C23.8529 8.10567 23.4565 7.64489 22.9673 7.30292C22.4781 6.96096 21.9118 6.74876 21.3204 6.68581C21.3204 6.68581 22.7675 4.36173 20.3703 2.09547C17.973 -0.170795 14.1637 0.761063 12.6 1.97315C11.0825 3.14075 10.3369 4.17269 10.1895 6.49677Z" fill="white"/>
<path d="M18.3293 17.0163V11.7877C21.2412 11.0337 24.4962 12.873 24.0959 15.9822C23.4911 18.9979 21.0168 18.5531 21.0168 18.5531V19.6317C21.0183 20.0105 20.9551 20.3867 20.8299 20.7437C20.6247 21.3751 20.268 21.9452 19.7917 22.4032C19.3155 22.8611 18.7344 23.1926 18.1005 23.3681C15.0896 24.1465 13.3478 22.5763 13.3478 22.5763C17.7926 22.2227 18.3029 18.5042 18.3293 17.0163Z" fill="white"/>
<path fill-rule="evenodd" clip-rule="evenodd" d="M70.5531 10.3219C70.8529 11.0918 70.9952 11.9152 70.9714 12.7423V18.0058H68.5893V12.7423C68.6143 12.4512 68.582 12.1581 68.4943 11.8798C68.4065 11.6015 68.265 11.3435 68.078 11.1209C67.8751 10.9326 67.6368 10.7877 67.3772 10.6948C67.1176 10.602 66.8422 10.5631 66.5674 10.5804C66.1725 10.5795 65.7802 10.643 65.4053 10.7684C65.0806 10.8889 64.7781 11.0636 64.5106 11.2854V18.0058H62.1865V5.62232L64.5106 4.98787V9.11179C64.8704 8.89032 65.2626 8.72774 65.6726 8.63008C66.8629 8.32341 68.1196 8.4183 69.2516 8.90031C69.8381 9.20735 70.3018 9.70945 70.5647 10.3219H70.5531ZM39.0738 5.84544H41.4676V18.0527H39.0738V11.673H33.4961V18.0527H31.1139V5.84544H33.4961V9.5464H39.0738V5.84544ZM49.9154 8.47743L52.3208 7.74899V18.0529H49.9154V17.3362C49.5344 17.6131 49.1102 17.8236 48.6604 17.9589C48.2493 18.0873 47.8237 18.1623 47.3938 18.1822H47.2079C46.6629 18.1861 46.1211 18.0987 45.6043 17.9237C45.1419 17.745 44.7074 17.4996 44.3144 17.1953C43.9461 16.8797 43.6251 16.5116 43.3616 16.1026C43.1048 15.6953 42.909 15.2519 42.7806 14.7867C42.642 14.3057 42.5716 13.8073 42.5714 13.3063C42.5707 12.8091 42.6412 12.3145 42.7806 11.8377C43.0315 10.893 43.5677 10.051 44.3144 9.42911C44.7074 9.12471 45.1419 8.87936 45.6043 8.70067C46.1211 8.52563 46.6629 8.43829 47.2079 8.44219H47.3938C47.8129 8.45629 48.2277 8.53148 48.6256 8.66542C49.0792 8.78674 49.5135 8.97267 49.9154 9.21763V8.47743ZM49.9154 11.4382C49.618 11.1798 49.275 10.9805 48.9044 10.8507C48.495 10.6997 48.0621 10.6241 47.6262 10.6275H47.3938C47.0821 10.6464 46.7758 10.7179 46.4874 10.839C46.1636 10.9789 45.8682 11.178 45.6159 11.4265C45.3825 11.6754 45.1973 11.9663 45.0698 12.2841C44.938 12.6039 44.8746 12.9483 44.8838 13.2946C44.8745 13.6485 44.9378 14.0005 45.0698 14.3285C45.1973 14.6463 45.3825 14.9372 45.6159 15.1862C45.8621 15.442 46.1591 15.6423 46.4874 15.7736C46.7766 15.8921 47.0825 15.9635 47.3938 15.9851H47.6262C48.0601 15.9875 48.4915 15.9201 48.9044 15.7854C49.2736 15.6471 49.6158 15.4443 49.9154 15.1862V11.4382ZM61.0245 15.2097C61.0414 14.7078 60.8989 14.2137 60.6178 13.7998L60.583 13.8115C60.2781 13.4062 59.879 13.0833 59.4209 12.8716C58.8275 12.6126 58.208 12.4196 57.5733 12.2959C57.1787 12.2247 56.7902 12.1226 56.4113 11.9904C56.1767 11.9302 55.9583 11.8178 55.7722 11.6614C55.7025 11.614 55.6465 11.5489 55.6097 11.4725C55.573 11.3962 55.5569 11.3114 55.563 11.2267C55.5617 11.104 55.5922 10.9832 55.6513 10.876C55.7104 10.7689 55.7961 10.6792 55.9 10.6158C56.217 10.4442 56.5755 10.3668 56.9342 10.3925C57.2264 10.3961 57.5179 10.4236 57.8057 10.4748C58.1365 10.5107 58.4632 10.5776 58.7818 10.6745C59.0274 10.743 59.2606 10.824 59.4905 10.9038C59.576 10.9335 59.6613 10.9631 59.7463 10.9917V8.92391L59.4674 8.82992C59.0861 8.71808 58.6979 8.63174 58.3054 8.57144C57.8561 8.49481 57.4014 8.45551 56.9458 8.45395C56.295 8.43955 55.6488 8.56781 55.0517 8.82992C54.5809 9.054 54.1793 9.40326 53.8897 9.84034C53.5962 10.291 53.435 10.8165 53.4249 11.356C53.4176 11.7652 53.5136 12.1696 53.7037 12.5309C53.8685 12.8641 54.1169 13.1477 54.4242 13.3533C54.7575 13.5968 55.126 13.787 55.5165 13.9173C55.9727 14.0674 56.4386 14.1852 56.9109 14.2697C57.4106 14.3872 57.7941 14.4812 58.073 14.5752C58.2984 14.6497 58.5104 14.7608 58.7005 14.9042C58.7676 14.9613 58.8205 15.0336 58.8549 15.1153C58.8892 15.1969 58.904 15.2856 58.898 15.3742C58.8997 15.5342 58.8509 15.6906 58.7586 15.8206C58.6218 15.9681 58.4497 16.0773 58.2589 16.1378C57.9755 16.2382 57.6756 16.2821 57.3758 16.2671C56.9783 16.2686 56.5815 16.2332 56.1905 16.1613C55.8485 16.1067 55.5107 16.0282 55.1795 15.9264C54.8425 15.8089 54.4707 15.6561 54.0872 15.4916V17.724H54.1802C54.483 17.8575 54.7983 17.9599 55.1214 18.0294L56.1208 18.1822H57.2828C57.9791 18.2012 58.6717 18.0732 59.3164 17.8062C59.8276 17.5967 60.2676 17.2416 60.583 16.784C60.8862 16.3174 61.0403 15.7678 61.0245 15.2097ZM81.8365 7.74899L79.4543 8.63017V9.21763C79.08 8.97731 78.6781 8.78398 78.2575 8.64192C77.8463 8.53748 77.4259 8.47451 77.0025 8.45394H76.8165C76.1928 8.45219 75.5741 8.56773 74.9922 8.79466C74.4392 8.99872 73.9331 9.31453 73.5048 9.72284C73.0633 10.1368 72.7146 10.6416 72.4822 11.2032C72.2358 11.8064 72.1133 12.454 72.1219 13.1066C72.1167 13.7588 72.2392 14.4057 72.4822 15.0099C72.706 15.5606 73.0426 16.0571 73.4699 16.4668C73.902 16.8818 74.4063 17.2124 74.9573 17.442C75.5375 17.6859 76.1543 17.8289 76.7817 17.8649H77.107C77.4996 17.8498 77.8894 17.7906 78.2691 17.6887C78.6776 17.5806 79.0688 17.4145 79.4311 17.1953C79.4272 17.542 79.3352 17.8818 79.1638 18.1822C78.9892 18.4781 78.7558 18.7341 78.4782 18.9341C78.1937 19.1317 77.8799 19.2824 77.5486 19.3806C77.3732 19.4347 77.1947 19.4779 77.0141 19.5098H76.5028C76.1135 19.5113 75.7248 19.4799 75.3408 19.4158C74.9991 19.3764 74.661 19.3096 74.3298 19.2161L73.3421 18.9576L72.8889 20.7435L73.6442 20.9667L74.2833 21.0607C74.3803 21.0895 74.483 21.1071 74.5926 21.1258C74.7061 21.1452 74.8272 21.1658 74.9573 21.2017C75.2129 21.2722 75.4802 21.2722 75.8404 21.2722H77.0025C77.6395 21.2894 78.2741 21.1858 78.8733 20.9667C79.3571 20.8205 79.8101 20.5855 80.2097 20.2735C80.5806 19.9385 80.8912 19.541 81.1277 19.0986C81.3732 18.6702 81.5534 18.2067 81.6622 17.724C81.7767 17.2469 81.8352 16.7579 81.8365 16.2671V7.74899ZM78.4201 10.8272C78.7977 10.9458 79.1489 11.1374 79.4543 11.3912V14.8572C79.1556 15.1025 78.8121 15.2861 78.4434 15.3976C78.0298 15.5295 77.5988 15.5969 77.1652 15.5974H76.9211C76.6279 15.5786 76.3386 15.5193 76.0612 15.4211C75.7318 15.3167 75.4272 15.1448 75.1665 14.9159C74.9213 14.7042 74.7266 14.4391 74.5971 14.1405C74.4518 13.8156 74.3765 13.4631 74.3763 13.1066C74.3781 12.7653 74.4535 12.4285 74.5971 12.1196C74.7318 11.8174 74.9255 11.5456 75.1665 11.3207C75.6551 10.8925 76.2748 10.6477 76.9211 10.6275H77.1652C77.5913 10.626 78.015 10.6935 78.4201 10.8272ZM89.7847 8.50078C89.8849 8.50621 89.9834 8.5301 90.0752 8.57127V11.1796H89.6452C89.5216 11.1675 89.397 11.1675 89.2734 11.1796C89.1419 11.1675 89.0097 11.1675 88.8783 11.1796C88.5065 11.1615 88.1359 11.2341 87.7976 11.3911C87.5065 11.5067 87.2502 11.697 87.0539 11.9433C86.8644 12.1734 86.7258 12.4418 86.6472 12.7304C86.5593 13.0197 86.5162 13.3209 86.5194 13.6234V18.182H84.1721V8.78276H86.5658V9.94592C86.7804 9.67061 87.0306 9.42561 87.3095 9.21747C87.6054 8.99632 87.9352 8.82565 88.2856 8.71226C88.662 8.59004 89.0528 8.51892 89.4477 8.50078C89.5404 8.49136 89.6338 8.49136 89.7266 8.50078H89.7847ZM100.115 13.4942H97.7679C97.7225 14.0257 97.5141 14.5296 97.1717 14.9355C96.8294 15.3415 96.3703 15.6292 95.8585 15.7586C95.3466 15.888 94.8075 15.8525 94.3166 15.6572C93.8256 15.4619 93.4072 15.1165 93.1198 14.6691L94.5607 13.8349L97.489 12.1196L98.7324 11.4029L99.4644 10.9564V10.8859C99.0581 10.1715 98.4788 9.57315 97.7811 9.14709C97.0833 8.72102 96.29 8.4812 95.4754 8.45013C94.6609 8.41906 93.8519 8.59776 93.1244 8.96945C92.3969 9.34115 91.7747 9.89366 91.3162 10.5751C90.8578 11.2566 90.5781 12.0446 90.5035 12.8653C90.4288 13.686 90.5616 14.5124 90.8895 15.267C91.2173 16.0216 91.7293 16.6795 92.3776 17.1792C93.0259 17.6788 93.789 18.0037 94.5955 18.1234C95.6672 18.2959 96.7648 18.084 97.6982 17.5242C98.4036 17.1121 98.9949 16.5267 99.4174 15.8223C99.8399 15.118 100.08 14.3172 100.115 13.4942ZM92.7372 13.1278L96.3851 11.0152C95.8183 10.7316 95.1659 10.6769 94.5607 10.8624C94.3641 10.9175 94.1763 11.0006 94.0029 11.1092C93.6401 11.3133 93.3339 11.6065 93.1126 11.9617C92.8937 12.313 92.7647 12.7137 92.7372 13.1278ZM108.052 13.4941H110.376C110.342 14.3188 110.101 15.1211 109.676 15.8259C109.251 16.5308 108.656 17.1151 107.947 17.524C107.017 18.0811 105.924 18.293 104.856 18.1232C104.045 18.014 103.275 17.6974 102.619 17.2033C101.962 16.7092 101.442 16.0541 101.105 15.2998C100.769 14.5455 100.629 13.717 100.698 12.8926C100.767 12.0682 101.042 11.2752 101.499 10.5885C101.955 9.90185 102.577 9.34425 103.306 8.96843C104.035 8.59261 104.847 8.411 105.665 8.44077C106.482 8.47053 107.279 8.71069 107.979 9.13853C108.68 9.56637 109.261 10.1678 109.667 10.8858V10.9563L108.935 11.4028L107.692 12.1195L104.821 13.8348L103.38 14.669C103.7 15.2126 104.217 15.6088 104.821 15.7734C105.184 15.8795 105.566 15.9022 105.938 15.8399C106.311 15.7776 106.665 15.6318 106.975 15.4133C107.284 15.1948 107.542 14.9091 107.728 14.577C107.915 14.245 108.025 13.875 108.052 13.4941ZM102.997 13.1416L104.821 12.0725L106.646 11.0151C106.079 10.7314 105.427 10.6768 104.821 10.8623C104.624 10.9151 104.436 10.9983 104.264 11.109C103.901 11.3132 103.595 11.6064 103.373 11.9616C103.152 12.3168 103.023 12.7226 102.997 13.1416ZM120.125 12.7424C120.149 11.9153 120.053 11.0918 119.753 10.322C119.495 9.71037 119.035 9.20802 118.452 8.9004C117.748 8.58079 116.981 8.42808 116.209 8.45394C115.752 8.45702 115.298 8.52828 114.861 8.66542C114.449 8.78964 114.057 8.97579 113.699 9.21763V7.74899L111.375 8.38344V18.0059H113.699V11.3207C113.965 11.085 114.273 10.9016 114.606 10.7803C114.978 10.6437 115.372 10.5761 115.768 10.5805C116.044 10.5642 116.321 10.6036 116.582 10.6964C116.844 10.7892 117.084 10.9335 117.29 11.121C117.655 11.5779 117.837 12.1563 117.801 12.7424V18.0059H120.125V12.7424Z" fill="white"/>
<path d="M127.086 18.126C126.228 18.126 125.453 17.976 124.759 17.676C124.078 17.376 123.537 16.944 123.137 16.38C122.738 15.816 122.532 15.15 122.521 14.382H125.165C125.2 14.898 125.376 15.306 125.693 15.606C126.023 15.906 126.469 16.056 127.033 16.056C127.609 16.056 128.061 15.918 128.39 15.642C128.72 15.354 128.884 14.982 128.884 14.526C128.884 14.154 128.772 13.848 128.549 13.608C128.326 13.368 128.044 13.182 127.703 13.05C127.374 12.906 126.916 12.75 126.328 12.582C125.529 12.342 124.877 12.108 124.371 11.88C123.878 11.64 123.449 11.286 123.085 10.818C122.732 10.338 122.556 9.70198 122.556 8.90998C122.556 8.16598 122.738 7.51798 123.102 6.96598C123.467 6.41398 123.978 5.99398 124.636 5.70598C125.294 5.40598 126.046 5.25598 126.892 5.25598C128.161 5.25598 129.19 5.57398 129.977 6.20998C130.776 6.83398 131.217 7.70998 131.299 8.83798H128.584C128.561 8.40598 128.379 8.05198 128.038 7.77598C127.709 7.48798 127.268 7.34398 126.716 7.34398C126.234 7.34398 125.846 7.46998 125.552 7.72198C125.27 7.97398 125.129 8.33998 125.129 8.81998C125.129 9.15598 125.235 9.43798 125.447 9.66598C125.67 9.88198 125.94 10.062 126.258 10.206C126.587 10.338 127.045 10.494 127.633 10.674C128.432 10.914 129.084 11.154 129.589 11.394C130.094 11.634 130.529 11.994 130.894 12.474C131.258 12.954 131.44 13.584 131.44 14.364C131.44 15.036 131.27 15.66 130.929 16.236C130.588 16.812 130.089 17.274 129.431 17.622C128.772 17.958 127.991 18.126 127.086 18.126Z" fill="white"/>
<path d="M147.029 8.02798L144.174 18H141.512L139.732 11.034L137.951 18H135.272L132.399 8.02798H134.902L136.629 15.624L138.498 8.02798H141.107L142.94 15.606L144.667 8.02798H147.029Z" fill="white"/>
<path d="M147.642 12.978C147.642 11.97 147.836 11.076 148.224 10.296C148.623 9.51598 149.158 8.91598 149.828 8.49598C150.509 8.07598 151.267 7.86598 152.102 7.86598C152.83 7.86598 153.465 8.01598 154.006 8.31598C154.558 8.61598 154.999 8.99398 155.328 9.44998V8.02798H157.813V18H155.328V16.542C155.01 17.01 154.57 17.4 154.006 17.712C153.453 18.012 152.813 18.162 152.084 18.162C151.262 18.162 150.509 17.946 149.828 17.514C149.158 17.082 148.623 16.476 148.224 15.696C147.836 14.904 147.642 13.998 147.642 12.978ZM155.328 13.014C155.328 12.402 155.21 11.88 154.975 11.448C154.74 11.004 154.423 10.668 154.023 10.44C153.624 10.2 153.195 10.08 152.736 10.08C152.278 10.08 151.855 10.194 151.467 10.422C151.079 10.65 150.762 10.986 150.515 11.43C150.28 11.862 150.163 12.378 150.163 12.978C150.163 13.578 150.28 14.106 150.515 14.562C150.762 15.006 151.079 15.348 151.467 15.588C151.867 15.828 152.29 15.948 152.736 15.948C153.195 15.948 153.624 15.834 154.023 15.606C154.423 15.366 154.74 15.03 154.975 14.598C155.21 14.154 155.328 13.626 155.328 13.014Z" fill="white"/>
<path d="M162.603 9.46798C162.92 9.01198 163.355 8.63398 163.908 8.33398C164.472 8.02198 165.112 7.86598 165.829 7.86598C166.663 7.86598 167.415 8.07598 168.085 8.49598C168.767 8.91598 169.302 9.51598 169.689 10.296C170.089 11.064 170.289 11.958 170.289 12.978C170.289 13.998 170.089 14.904 169.689 15.696C169.302 16.476 168.767 17.082 168.085 17.514C167.415 17.946 166.663 18.162 165.829 18.162C165.112 18.162 164.478 18.012 163.925 17.712C163.385 17.412 162.944 17.034 162.603 16.578V22.752H160.135V8.02798H162.603V9.46798ZM167.768 12.978C167.768 12.378 167.645 11.862 167.398 11.43C167.163 10.986 166.846 10.65 166.446 10.422C166.058 10.194 165.635 10.08 165.177 10.08C164.73 10.08 164.307 10.2 163.908 10.44C163.52 10.668 163.202 11.004 162.956 11.448C162.721 11.892 162.603 12.414 162.603 13.014C162.603 13.614 162.721 14.136 162.956 14.58C163.202 15.024 163.52 15.366 163.908 15.606C164.307 15.834 164.73 15.948 165.177 15.948C165.635 15.948 166.058 15.828 166.446 15.588C166.846 15.348 167.163 15.006 167.398 14.562C167.645 14.118 167.768 13.59 167.768 12.978Z" fill="white"/>
</g>
<defs>
<clipPath id="clip0_176_1102">
<rect width="170.4" height="24" fill="white"/>
</clipPath>
</defs>
</svg>
