<svg width="156" height="24" viewBox="0 0 156 24" fill="none" xmlns="http://www.w3.org/2000/svg">
<path d="M23.7394 12.1281C23.7394 18.6846 18.5371 24 12.1195 24C5.7019 24 0.499969 18.6846 0.499969 12.1281C0.499969 5.5716 5.70229 0.25664 12.1199 0.25664C18.5375 0.25664 23.7398 5.5716 23.7398 12.1285M36.487 12.1285C36.487 5.95676 33.8856 0.95329 30.677 0.95329C27.4684 0.95329 24.867 5.95676 24.867 12.1285C24.867 18.3003 27.4684 23.3037 30.677 23.3037C33.8856 23.3037 36.487 18.3003 36.487 12.1285ZM41.7011 12.1285C41.7011 6.59856 40.7861 2.11597 39.6577 2.11597C38.5292 2.11597 37.6142 6.59856 37.6142 12.1285C37.6142 17.6585 38.5288 22.1411 39.6577 22.1411C40.7865 22.1411 41.7011 17.6585 41.7011 12.1285ZM73.7697 1.286C72.5635 1.56186 71.9511 1.97384 71.9511 3.46003H71.9456L71.9511 21.2847C72.0545 22.4582 72.6759 22.8205 73.7697 23.0707L73.802 23.0783V23.3326H65.386V23.0783L65.418 23.0707C66.5117 22.8205 67.1169 22.4582 67.2203 21.2847V3.94328L59.1085 23.2897H58.6618L50.7777 4.46897V20.8543C50.7777 22.34 51.39 22.7524 52.5962 23.0283L52.6282 23.0355V23.2897H47.7987V23.0355L47.8307 23.0283C49.0368 22.752 49.6516 22.34 49.6516 20.8543V3.46003C49.6516 1.97384 49.0392 1.56186 47.833 1.286L47.8011 1.27879V1.02456H54.9218L61.0576 15.6582L67.1935 1.02456H73.8016V1.27879L73.7693 1.286M83.2475 12.8084C83.3051 10.3693 82.9323 8.73655 82.1392 7.95583C81.7659 7.58788 81.2857 7.39851 80.7132 7.3889C78.8572 7.42733 77.7512 9.68344 77.6135 12.8084H83.2475ZM77.5299 13.6884C77.3389 17.1192 79.4474 19.9506 82.1999 20.1596C84.215 20.3126 85.985 19.0586 86.973 16.9895L87.2567 17.0908C86.6952 20.9407 84.4418 23.8094 80.5763 23.8094C76.1714 23.8094 73.6908 20.0867 73.5838 15.4288C73.5807 15.2486 73.5819 15.0697 73.5858 14.8919C73.5882 14.781 73.5925 14.6705 73.5977 14.5604C73.6004 14.5015 73.604 14.4431 73.6075 14.3842C73.6115 14.3226 73.6158 14.2609 73.6209 14.1993C73.7795 12.1421 74.4325 10.3116 75.5093 8.95716C76.1785 8.11557 76.9826 7.47458 77.8949 7.04618C78.6958 6.63659 79.8219 6.41078 80.7393 6.41078H80.7799C82.5483 6.41078 84.2319 7.01815 85.3691 8.12118C86.6853 9.39757 87.3667 11.2565 87.3944 13.6463V13.6884H77.5287M98.5455 8.53076C98.2263 7.78326 97.556 7.35486 96.7053 7.35486C94.6729 7.35486 93.3598 10.1242 93.3598 14.4098C93.3598 16.4682 93.6928 18.2054 94.3233 19.4349C94.9104 20.58 95.7339 21.2106 96.6425 21.2106C97.5512 21.2106 98.2224 20.7818 98.5455 20.0031V8.53116V8.53076ZM105.121 23.0651V23.3318H98.5455V20.7538C97.7923 22.672 96.1474 23.809 94.102 23.809C90.6065 23.809 88.2577 20.556 88.2577 15.7147C88.2577 13.0033 89.0259 10.6664 90.4791 8.95556C91.8731 7.31443 93.806 6.41078 95.9209 6.41078C96.9637 6.41078 97.8231 6.6386 98.5451 7.10703V4.25757C98.5451 3.62658 98.3936 3.17817 98.0815 2.88589C97.6826 2.51234 96.9977 2.37101 95.9868 2.45389L95.9418 2.45749V2.18884L103.272 0V20.7754C103.272 22.3352 103.885 22.7677 105.091 23.0575L105.123 23.0651H105.121ZM111.374 2.82504C111.374 4.33685 110.251 5.47711 108.761 5.47711C107.271 5.47711 106.116 4.31242 106.116 2.82504C106.116 1.33765 107.277 0.172961 108.761 0.172961C110.244 0.172961 111.374 1.31323 111.374 2.82504ZM113.136 23.0651V23.3318H106.555V10.9546C106.555 9.26705 106.165 8.76978 104.742 8.64167L104.704 8.63806V8.37662L111.28 6.46083V20.7754H111.285C111.285 22.3352 111.898 22.7677 113.104 23.0575L113.136 23.0651H113.136ZM129.986 23.0651V23.3318H123.41V20.6901C122.661 22.5927 120.965 23.809 119.029 23.809C116.743 23.809 115.285 22.752 114.728 20.7273L114.608 20.2053C114.517 19.7204 114.471 19.1895 114.471 18.611V10.9542C114.471 9.26665 114.081 8.76938 112.658 8.64126L112.62 8.63766V8.37622L119.196 6.46043V18.4841C119.196 20.2629 119.983 21.2426 121.413 21.2426C122.294 21.213 123.022 20.749 123.41 19.9702V10.9234C123.41 9.22861 123.074 8.70252 121.91 8.57841L121.873 8.5744V8.31336L128.135 6.46083V20.7754C128.135 22.3352 128.747 22.7677 129.954 23.0575L129.986 23.0651ZM148.923 23.3318V11.4503C148.923 9.52969 148.25 8.59642 146.864 8.59642C145.718 8.59642 145.13 9.43841 144.837 10.1503C144.897 10.493 144.93 10.8766 144.93 11.2593V21.189C144.93 22.3541 145.265 22.8081 146.309 23.0571L146.341 23.0647V23.3318H140.205V11.4503C140.205 9.55652 139.512 8.59642 138.145 8.59642C137.044 8.59642 136.486 9.37235 136.211 10.0266V21.189C136.211 22.3541 136.546 22.8081 137.59 23.0571L137.622 23.0647V23.3318H131.486V10.8457C131.486 9.20299 131.079 8.69131 129.673 8.56439L129.635 8.56079V8.29895L136.211 6.46163V9.25944C136.876 7.47057 138.426 6.41118 140.403 6.41118C142.655 6.41118 144.177 7.5026 144.706 9.48886C145.372 7.61431 147.103 6.41118 149.154 6.41118C151.969 6.41118 153.65 8.22368 153.65 11.2593V20.9984C153.65 22.1739 154.159 22.7512 155.468 23.0575L155.5 23.0651V23.3322H148.924L148.923 23.3318Z" fill="white"/>
</svg>
