<svg width="62" height="62" viewBox="0 0 62 62" fill="none" xmlns="http://www.w3.org/2000/svg">
<g opacity="0.7" filter="url(#filter0_f_241_809)">
<path fill-rule="evenodd" clip-rule="evenodd" d="M30.9084 49.3891C30.909 49.3079 30.909 49.2257 30.9084 49.1424L30.9084 49.3891ZM30.9084 12.6753L30.9084 30.9089L30.9084 49.1424C30.8597 42.91 27.1376 30.9224 12.4534 30.9089L12.4286 30.9089L12.4534 30.9089C27.1376 30.8953 30.8597 18.9077 30.9084 12.6753ZM30.9088 12.5179C30.9087 12.488 30.9086 12.4582 30.9084 12.4286L30.9084 12.6753C30.9086 12.6451 30.9087 12.615 30.9088 12.585C30.9089 12.615 30.909 12.6451 30.9093 12.6753L30.9093 30.9089L49.389 30.9089C34.6843 30.9089 30.9579 18.9113 30.9093 12.6753L30.9093 12.4286C30.909 12.4582 30.9089 12.488 30.9088 12.5179ZM30.9093 49.1425C30.9087 49.2257 30.9087 49.308 30.9093 49.3892L30.9093 49.1425ZM30.9093 49.1425C30.958 42.9065 34.6843 30.9089 49.3891 30.9089L30.9093 30.9089L30.9093 49.1425Z" fill="url(#paint0_diamond_241_809)"/>
</g>
<path fill-rule="evenodd" clip-rule="evenodd" d="M30.9972 14.7249C30.9971 14.7468 30.997 14.7687 30.9968 14.7907V14.5714C30.997 14.593 30.9971 14.6147 30.9972 14.6364C30.9973 14.6147 30.9974 14.593 30.9976 14.5714V14.7907C30.9974 14.7687 30.9973 14.7468 30.9972 14.7249ZM30.9976 14.7907C31.0408 20.3334 34.3529 30.9973 47.423 30.9973L30.9976 30.9973L30.9976 14.7907ZM30.9969 47.2038C30.9537 41.6644 27.6456 31.01 14.595 30.9973H14.5714L14.5881 30.9973L14.5715 30.9973H14.5949C27.6455 30.9845 30.9536 20.3301 30.9968 14.7907V30.9973L30.9969 30.9972L30.9969 47.2038ZM30.9973 47.2621C30.9972 47.2427 30.9971 47.2233 30.9969 47.2038V47.4231C30.9971 47.404 30.9972 47.3849 30.9973 47.3657C30.9973 47.3849 30.9975 47.4041 30.9976 47.4231V47.2039C31.0409 41.6611 34.3529 30.9973 47.423 30.9973L30.9976 30.9973L30.9976 47.2039C30.9975 47.2233 30.9974 47.2427 30.9973 47.2621Z" fill="url(#paint1_diamond_241_809)"/>
<defs>
<filter id="filter0_f_241_809" x="0.428574" y="0.428589" width="60.9606" height="60.9606" filterUnits="userSpaceOnUse" color-interpolation-filters="sRGB">
<feFlood flood-opacity="0" result="BackgroundImageFix"/>
<feBlend mode="normal" in="SourceGraphic" in2="BackgroundImageFix" result="shape"/>
<feGaussianBlur stdDeviation="6" result="effect1_foregroundBlur_241_809"/>
</filter>
<radialGradient id="paint0_diamond_241_809" cx="0" cy="0" r="1" gradientUnits="userSpaceOnUse" gradientTransform="translate(30.9089 30.9089) scale(18.4803 18.4803)">
<stop stop-color="white"/>
<stop offset="1" stop-color="white" stop-opacity="0"/>
</radialGradient>
<radialGradient id="paint1_diamond_241_809" cx="0" cy="0" r="1" gradientUnits="userSpaceOnUse" gradientTransform="translate(30.9973 30.9973) scale(16.4258 16.4259)">
<stop stop-color="white"/>
<stop offset="1" stop-color="white" stop-opacity="0"/>
</radialGradient>
</defs>
</svg>
