<svg width="24" height="24" viewBox="0 0 24 24" fill="none" xmlns="http://www.w3.org/2000/svg">
<g clip-path="url(#clip0_176_1127)">
<path d="M15.6609 14.911C14.5771 14.911 13.6836 13.9621 13.6836 12.7959C13.6836 11.6298 14.5591 10.6808 15.6609 10.6808C16.7627 10.6808 17.655 11.639 17.6382 12.7959C17.6213 13.9529 16.7711 14.911 15.6609 14.911ZM8.3515 14.911C7.26774 14.911 6.37424 13.9621 6.37424 12.7959C6.37424 11.6298 7.24968 10.6808 8.3515 10.6808C9.45333 10.6808 10.3456 11.639 10.3288 12.7959C10.3119 13.9529 9.45333 14.911 8.35271 14.911H8.3515ZM19.6214 5.3259C18.1954 4.70144 16.6904 4.25617 15.1443 4.00123C15.1302 3.99857 15.1156 4.00025 15.1026 4.00603C15.0897 4.01182 15.0789 4.02141 15.072 4.0334C14.8671 4.38842 14.681 4.75308 14.5145 5.12599C12.8478 4.88449 11.1525 4.88449 9.48584 5.12599C9.31839 4.75214 9.12945 4.38739 8.91988 4.0334C8.91259 4.02176 8.90181 4.01247 8.88893 4.00673C8.87605 4.001 8.86166 3.99908 8.84763 4.00123C7.30134 4.25564 5.79632 4.70093 4.37048 5.3259C4.35848 5.33092 4.34839 5.33934 4.34158 5.35002C1.49007 9.41478 0.70856 13.3796 1.09029 17.2984C1.09138 17.3081 1.0945 17.3175 1.09947 17.3259C1.10443 17.3344 1.11114 17.3419 1.11919 17.3478C2.77946 18.5214 4.63664 19.4172 6.61146 19.9972C6.62535 20.0011 6.64018 20.0009 6.65396 19.9966C6.66773 19.9923 6.6798 19.9841 6.68853 19.973C7.11262 19.4221 7.48839 18.8388 7.81203 18.229C7.81634 18.2206 7.81876 18.2115 7.81914 18.2022C7.81951 18.1929 7.81783 18.1836 7.81419 18.1749C7.81056 18.1662 7.80506 18.1584 7.79805 18.1519C7.79104 18.1454 7.78267 18.1403 7.77349 18.1371C7.18081 17.9207 6.60703 17.6599 6.05754 17.357C6.04692 17.3515 6.03795 17.3436 6.03147 17.3338C6.02499 17.3241 6.0212 17.313 6.02048 17.3015C6.01976 17.29 6.02212 17.2785 6.02734 17.2681C6.03256 17.2577 6.04046 17.2488 6.05031 17.2421C6.17073 17.1594 6.28152 17.0744 6.3911 16.9871C6.40083 16.9793 6.41267 16.9744 6.42523 16.9727C6.4378 16.9711 6.45059 16.9729 6.46214 16.9779C10.0614 18.5461 13.9594 18.5461 17.5165 16.9779C17.5281 16.9725 17.5411 16.9704 17.5539 16.9718C17.5667 16.9732 17.5788 16.9781 17.5888 16.9859C17.6984 17.0721 17.814 17.1594 17.9308 17.241C17.9407 17.2476 17.9487 17.2564 17.954 17.2667C17.9593 17.2771 17.9618 17.2885 17.9612 17.3C17.9606 17.3115 17.9569 17.3227 17.9505 17.3324C17.9442 17.3422 17.9353 17.3503 17.9248 17.3559C17.3786 17.6597 16.8066 17.9191 16.2148 18.1314C16.2056 18.1347 16.1972 18.1398 16.1902 18.1465C16.1832 18.1531 16.1778 18.1611 16.1742 18.1699C16.1707 18.1787 16.1692 18.1881 16.1697 18.1975C16.1703 18.2069 16.1729 18.2161 16.1775 18.2244C16.506 18.8311 16.8807 19.414 17.2986 19.9684C17.307 19.9798 17.319 19.9884 17.3328 19.9929C17.3467 19.9974 17.3616 19.9977 17.3756 19.9937C19.3538 19.4156 21.2141 18.5196 22.8763 17.3444C22.8845 17.3387 22.8912 17.3315 22.8962 17.3232C22.9012 17.3149 22.9043 17.3057 22.9052 17.2961C23.364 12.7695 22.137 8.83689 19.654 5.34772C19.6465 5.33716 19.6354 5.32943 19.6226 5.3259H19.6214Z" fill="white"/>
</g>
<defs>
<clipPath id="clip0_176_1127">
<rect width="24" height="24" fill="white"/>
</clipPath>
</defs>
</svg>
