<svg width="140" height="136" viewBox="0 0 140 136" fill="none" xmlns="http://www.w3.org/2000/svg">
<path d="M67.4821 13.193C67.4821 13.193 36.6158 13.4547 34.6796 49.4618C34.6796 49.4618 18.2783 50.5835 6.94862 63.072C6.94862 63.072 0.390625 56.5785 0.390625 40.164C0.390625 22.1169 17.5788 16.2715 28.8211 20.9328C28.8211 20.9328 27.2597 8.33221 38.502 3.0726C50.1315 -2.34902 59.3626 2.58653 67.4821 13.193Z" fill="#008C15"/>
<path d="M58.6133 83.7988H82.0972L81.9848 104.688C82.0972 131.048 56.2774 134.974 56.2774 134.974C25.9982 138.813 27.6596 111.966 27.6596 111.966C6.98627 117.388 -5.99232 93.3085 3.67604 75.9967C13.3444 58.6848 34.2426 57.0895 34.2426 57.0895V99.1414C34.2426 99.1414 33.8678 111.991 46.734 111.169C59.2254 110.384 58.5259 99.4031 58.5259 99.4031L58.6133 83.7988Z" fill="#008C15"/>
<path d="M58.2635 37.26V56.3043H81.9972V41.884C81.9972 41.884 82.5344 29.9938 92.7398 29.8567C103.42 29.7071 104.419 39.8275 104.394 41.884V60.4048C110.181 58.9413 116.265 59.151 121.936 61.0092C127.608 62.8675 132.632 66.2977 136.422 70.8991C136.422 70.8991 142.818 58.8095 137.384 49.2873C135.867 46.2764 133.615 43.6942 130.837 41.7778C128.058 39.8614 124.842 38.6722 121.483 38.3194C121.483 38.3194 129.702 25.2951 116.086 12.5947C102.471 -0.105587 80.8355 5.11663 71.9541 11.9092C63.335 18.4526 59.1004 24.2357 58.2635 37.26Z" fill="#008C15"/>
<path d="M104.494 96.2125V66.9108C121.033 62.6856 139.52 72.993 137.247 90.417C133.812 107.317 119.759 104.825 119.759 104.825V110.87C119.767 112.992 119.408 115.101 118.697 117.101C117.531 120.64 115.506 123.835 112.801 126.401C110.096 128.967 106.795 130.825 103.195 131.808C86.0943 136.171 76.2011 127.371 76.2011 127.371C101.446 125.39 104.344 104.551 104.494 96.2125Z" fill="#008C15"/>
</svg>
